<svg width="374" height="68" viewBox="0 0 374 68" fill="none" xmlns="http://www.w3.org/2000/svg">
<path d="M154.216 36.752H148.648V42.192H144.52V36.752H138.984V32.848H144.52V27.408H148.648V32.848H154.216V36.752Z" fill="white" fill-opacity="0.5"/>
<path d="M280.216 36.752H274.648V42.192H270.52V36.752H264.984V32.848H270.52V27.408H274.648V32.848H280.216V36.752Z" fill="white" fill-opacity="0.5"/>
<path d="M217.98 47.2729L182.177 67.8105C181.727 68.0727 181.161 68.0581 180.726 67.7959C180.276 67.5337 180 67.0676 180 66.5433C180 66.5433 180.015 64.6497 180.029 61.5327L206.109 35.3582L217.98 47.2729Z" fill="url(#paint0_linear)"/>
<path d="M180.029 61.5327C180.072 50.288 180.203 22.9919 180.261 9.40217L206.123 35.3582L180.029 61.5327Z" fill="url(#paint1_linear)"/>
<path d="M238.472 35.5185L217.98 47.2729L206.094 35.3582L219.504 21.8996L238.487 32.9986C238.937 33.2608 239.212 33.7415 239.212 34.2513C239.212 34.7756 238.922 35.2563 238.472 35.5185V35.5185Z" fill="url(#paint2_linear)"/>
<path d="M180.247 9.40203C180.276 4.55166 180.29 1.44917 180.29 1.44917C180.29 0.924809 180.566 0.444141 181.016 0.196525C181.466 -0.0656577 182.017 -0.0656577 182.467 0.196525L219.518 21.8848L206.109 35.3435L180.247 9.40203Z" fill="url(#paint3_linear)"/>
<path d="M306 15C306 6.71573 312.716 0 321 0H359C367.284 0 374 6.71573 374 15V53C374 61.2843 367.284 68 359 68H321C312.716 68 306 61.2843 306 53V15Z" fill="url(#paint4_linear)"/>
<path d="M328.113 49.5058L328.12 49.5078L325.826 53.4813C324.988 54.9318 323.133 55.4288 321.683 54.5913C320.233 53.754 319.736 51.8992 320.573 50.4488L322.263 47.5216L322.425 47.2407C322.715 46.8243 323.43 46.1059 324.859 46.2409C324.859 46.2409 328.224 46.606 328.468 48.3548C328.468 48.3548 328.501 48.9303 328.113 49.5058ZM360.652 39.3567H353.498C353.011 39.3241 352.798 39.1501 352.715 39.049L352.71 39.0398L345.051 25.7755L345.042 25.7822L344.582 25.1236C343.83 23.9726 342.634 26.9166 342.634 26.9166C341.207 30.197 342.837 33.9267 343.405 35.0539L354.042 53.4772C354.879 54.9277 356.734 55.4247 358.184 54.5872C359.635 53.7499 360.132 51.8951 359.294 50.4447L356.634 45.8378C356.583 45.7262 356.493 45.4231 357.039 45.4219H360.652C362.327 45.4219 363.685 44.0641 363.685 42.3893C363.685 40.7145 362.327 39.3567 360.652 39.3567ZM346.757 43.4794C346.757 43.4794 347.139 45.4218 345.661 45.4218H344.184L319.215 45.4219C317.54 45.4219 316.182 44.0641 316.182 42.3893C316.182 40.7145 317.54 39.3567 319.215 39.3567H326.014C327.112 39.2931 327.372 38.6595 327.372 38.6595L327.378 38.6625L336.253 23.2904L336.25 23.2899C336.412 22.9929 336.277 22.7123 336.254 22.6679L333.323 17.5914C332.486 16.1409 332.983 14.2862 334.433 13.4488C335.883 12.6114 337.738 13.1083 338.576 14.5588L339.935 16.9133L341.292 14.563C342.129 13.1125 343.984 12.6155 345.434 13.453C346.885 14.2904 347.382 16.1452 346.544 17.5955L334.194 38.9861C334.14 39.1163 334.124 39.3207 334.526 39.3567H341.908L341.909 39.4287C341.909 39.4287 346.176 39.4951 346.757 43.4794Z" fill="white"/>
<path d="M32.0962 24.6963C32.0962 26.0957 32.2477 27.2303 32.5129 28.0623C32.8159 28.8943 33.1947 29.802 33.725 30.7853C33.9144 31.0879 33.9902 31.3904 33.9902 31.6552C33.9902 32.0334 33.7629 32.4116 33.2705 32.7898L30.884 34.3782C30.5431 34.6051 30.2022 34.7186 29.8992 34.7186C29.5204 34.7186 29.1416 34.5295 28.7628 34.1891C28.2325 33.6218 27.7779 33.0167 27.3991 32.4116C27.0203 31.7686 26.6415 31.0501 26.2249 30.1802C23.2702 33.6596 19.558 35.3993 15.0882 35.3993C11.9064 35.3993 9.36842 34.4917 7.51232 32.6763C5.65622 30.861 4.70923 28.4405 4.70923 25.4149C4.70923 22.2002 5.84562 19.5907 8.15627 17.624C10.4669 15.6574 13.5352 14.6741 17.4368 14.6741C18.7247 14.6741 20.0505 14.7875 21.452 14.9766C22.8536 15.1657 24.293 15.4683 25.8082 15.8087V13.0478C25.8082 10.1735 25.2021 8.16908 24.0278 6.99666C22.8157 5.82425 20.7702 5.25695 17.8535 5.25695C16.5277 5.25695 15.164 5.40823 13.7625 5.74861C12.3609 6.08899 10.9972 6.50501 9.67146 7.03448C9.06538 7.29922 8.61083 7.4505 8.34567 7.52614C8.08051 7.60178 7.89112 7.6396 7.7396 7.6396C7.20928 7.6396 6.94413 7.2614 6.94413 6.46719V4.61402C6.94413 4.0089 7.01989 3.55506 7.20928 3.29032C7.39868 3.02558 7.7396 2.76085 8.26991 2.49611C9.5957 1.81535 11.1866 1.24805 13.0427 0.794216C14.8988 0.302558 16.8686 0.0756396 18.952 0.0756396C23.4596 0.0756396 26.7552 1.09677 28.8764 3.13904C30.9598 5.18131 32.0204 8.28254 32.0204 12.4427V24.6963H32.0962ZM16.7171 30.4449C17.9671 30.4449 19.255 30.218 20.6187 29.7642C21.9823 29.3104 23.1945 28.4783 24.2172 27.3437C24.8233 26.6251 25.2779 25.8309 25.5051 24.9233C25.7324 24.0156 25.8839 22.9188 25.8839 21.6329V20.0445C24.7854 19.7798 23.6112 19.5528 22.399 19.4016C21.1869 19.2503 20.0126 19.1746 18.8383 19.1746C16.3004 19.1746 14.4443 19.6663 13.1943 20.6874C11.9442 21.7086 11.3382 23.1457 11.3382 25.0367C11.3382 26.8142 11.7927 28.1379 12.7397 29.0456C13.6488 29.9911 14.9746 30.4449 16.7171 30.4449V30.4449ZM47.1344 34.5295C46.4526 34.5295 45.998 34.416 45.695 34.1513C45.3919 33.9244 45.1268 33.3949 44.8995 32.6763L35.9978 3.4416C35.7705 2.68521 35.6569 2.19355 35.6569 1.92881C35.6569 1.32369 35.9599 0.983315 36.566 0.983315H40.2782C40.9979 0.983315 41.4903 1.09677 41.7555 1.36151C42.0585 1.58843 42.2858 2.11791 42.5131 2.83649L48.8769 27.8732L54.7861 2.83649C54.9755 2.08009 55.2028 1.58843 55.5058 1.36151C55.8088 1.13459 56.3391 0.983315 57.021 0.983315H60.0513C60.7711 0.983315 61.2635 1.09677 61.5665 1.36151C61.8696 1.58843 62.1347 2.11791 62.2862 2.83649L68.2712 28.1758L74.8244 2.83649C75.0517 2.08009 75.3168 1.58843 75.582 1.36151C75.885 1.13459 76.3775 0.983315 77.0593 0.983315H80.5821C81.1882 0.983315 81.5291 1.28587 81.5291 1.92881C81.5291 2.11791 81.4912 2.30701 81.4533 2.53393C81.4154 2.76085 81.3397 3.0634 81.1882 3.47942L72.0592 32.7141C71.8319 33.4705 71.5667 33.9622 71.2637 34.1891C70.9607 34.416 70.4682 34.5673 69.8243 34.5673H66.5666C65.8469 34.5673 65.3545 34.4538 65.0515 34.1891C64.7484 33.9244 64.4833 33.4327 64.3317 32.6763L58.4604 8.28254L52.6269 32.6385C52.4375 33.3949 52.2103 33.8865 51.9072 34.1513C51.6042 34.416 51.0739 34.5295 50.392 34.5295H47.1344ZM95.8097 35.5506C93.84 35.5506 91.8702 35.3237 89.9762 34.8699C88.0823 34.416 86.605 33.9244 85.6201 33.3571C85.014 33.0167 84.5973 32.6385 84.4458 32.2981C84.2943 31.9577 84.2185 31.5795 84.2185 31.2392V29.3104C84.2185 28.5161 84.5216 28.1379 85.0898 28.1379C85.3171 28.1379 85.5443 28.1758 85.7716 28.2514C85.9989 28.327 86.3398 28.4783 86.7186 28.6296C88.0065 29.1969 89.408 29.6507 90.8854 29.9533C92.4005 30.2558 93.8778 30.4071 95.393 30.4071C97.7794 30.4071 99.6355 29.9911 100.923 29.1591C102.211 28.327 102.893 27.1168 102.893 25.5662C102.893 24.5072 102.552 23.6374 101.87 22.9188C101.189 22.2002 99.9007 21.5573 98.0446 20.9522L92.5521 19.2503C89.7868 18.3804 87.7413 17.0946 86.4913 15.3927C85.2413 13.7286 84.5973 11.8754 84.5973 9.90879C84.5973 8.32036 84.9383 6.92103 85.6201 5.71079C86.3019 4.50056 87.211 3.4416 88.3474 2.60957C89.4838 1.73971 90.7717 1.09677 92.2869 0.642937C93.8021 0.189099 95.393 0 97.0597 0C97.8931 0 98.7643 0.0378198 99.5977 0.151279C100.469 0.264739 101.264 0.416018 102.06 0.567297C102.817 0.756396 103.537 0.945495 104.219 1.17241C104.901 1.39933 105.431 1.62625 105.81 1.85317C106.34 2.15573 106.719 2.45829 106.946 2.79867C107.174 3.10122 107.287 3.51724 107.287 4.04672V5.82425C107.287 6.61847 106.984 7.03448 106.416 7.03448C106.113 7.03448 105.621 6.88321 104.977 6.58065C102.817 5.59733 100.393 5.10567 97.7037 5.10567C95.5445 5.10567 93.84 5.44605 92.6657 6.16463C91.4914 6.8832 90.8854 7.97998 90.8854 9.53059C90.8854 10.5895 91.2642 11.4972 92.0217 12.2158C92.7793 12.9344 94.1809 13.653 96.1885 14.2959L101.567 15.9978C104.295 16.8676 106.264 18.0779 107.439 19.6285C108.613 21.1791 109.181 22.9566 109.181 24.9233C109.181 26.5495 108.84 28.0245 108.196 29.3104C107.514 30.5962 106.605 31.7308 105.431 32.6385C104.257 33.584 102.855 34.2647 101.226 34.7564C99.5219 35.2859 97.7416 35.5506 95.8097 35.5506V35.5506Z" fill="white"/>
<path fill-rule="evenodd" clip-rule="evenodd" d="M102.969 53.9312C90.5065 63.1214 72.4001 68.0002 56.8315 68.0002C35.0129 68.0002 15.3534 59.9446 0.504563 46.5564C-0.669705 45.4974 0.390924 44.0603 1.79247 44.8923C17.8534 54.196 37.6645 59.8311 58.1573 59.8311C71.9834 59.8311 87.1731 56.9568 101.151 51.0569C103.234 50.1114 105.014 52.4184 102.969 53.9312V53.9312Z" fill="#FF9900"/>
<path fill-rule="evenodd" clip-rule="evenodd" d="M108.159 48.0314C106.568 45.9891 97.6281 47.0481 93.5749 47.5397C92.3628 47.691 92.1734 46.6321 93.2719 45.8378C100.393 40.8456 112.098 42.2828 113.462 43.9469C114.825 45.6487 113.083 57.3351 106.416 62.9324C105.393 63.8022 104.409 63.3484 104.863 62.2138C106.378 58.4697 109.75 50.0358 108.159 48.0314V48.0314Z" fill="#FF9900"/>
<defs>
<linearGradient id="paint0_linear" x1="180" y1="51.6726" x2="217.987" y2="51.6726" gradientUnits="userSpaceOnUse">
<stop stop-color="#63BE6B"/>
<stop offset="0.506" stop-color="#5BBC6A"/>
<stop offset="1" stop-color="#4AB96A"/>
</linearGradient>
<linearGradient id="paint1_linear" x1="180.022" y1="35.4612" x2="206.108" y2="35.4612" gradientUnits="userSpaceOnUse">
<stop stop-color="#3EC6F2"/>
<stop offset="1" stop-color="#45AFE3"/>
</linearGradient>
<linearGradient id="paint2_linear" x1="206.108" y1="34.5769" x2="239.209" y2="34.5769" gradientUnits="userSpaceOnUse">
<stop stop-color="#FAA51A"/>
<stop offset="0.387" stop-color="#FAB716"/>
<stop offset="0.741" stop-color="#FAC412"/>
<stop offset="1" stop-color="#FAC80F"/>
</linearGradient>
<linearGradient id="paint3_linear" x1="180.253" y1="17.6723" x2="219.518" y2="17.6723" gradientUnits="userSpaceOnUse">
<stop stop-color="#EC3B50"/>
<stop offset="1" stop-color="#E7515B"/>
</linearGradient>
<linearGradient id="paint4_linear" x1="340" y1="68" x2="340" y2="0" gradientUnits="userSpaceOnUse">
<stop stop-color="#1D76F2"/>
<stop offset="1" stop-color="#1AC2FB"/>
</linearGradient>
</defs>
</svg>
