<svg width="272" height="41" viewBox="0 0 272 41" fill="none" xmlns="http://www.w3.org/2000/svg">
<path d="M73.5646 12.8132C72.4864 11.0415 70.9221 9.61543 69.057 8.7037C67.1338 7.71383 64.9101 7.23389 62.3858 7.23389H51.8682V30.6909H62.3858C64.6943 30.7298 66.9795 30.2263 69.057 29.2211C70.9158 28.3001 72.4777 26.8761 73.5646 25.1116C74.652 23.2471 75.2031 21.1193 75.1573 18.9624C75.1543 16.6227 74.6434 14.5829 73.5646 12.8132ZM67.6747 24.2717C66.2924 25.5615 64.4293 26.2215 62.1154 26.2215H57.2171V11.7033H62.1154C64.4593 11.7033 66.2924 12.3332 67.6747 13.6531C69.057 14.9729 69.7482 16.7127 69.7482 18.9624C69.7482 21.2121 69.057 22.9549 67.6717 24.2717H67.6747ZM96.2828 21.722C96.3145 19.9833 95.8897 18.2667 95.0507 16.7427C94.2744 15.3572 93.1169 14.2226 91.7151 13.4731C88.7009 11.9323 85.1236 11.9547 82.129 13.5331C80.7147 14.3004 79.5397 15.4421 78.7333 16.8327C77.9057 18.2851 77.4804 19.9313 77.5012 21.602C77.4721 23.2872 77.9088 24.9478 78.7633 26.4014C79.6228 27.8135 80.8617 28.9566 82.3393 29.701C83.9862 30.5324 85.8133 30.9446 87.6583 30.9009C90.9037 30.9009 93.3378 29.941 95.0206 27.9912L92.286 24.9916C91.7113 25.5631 91.0264 26.0121 90.2727 26.3114C89.4835 26.5992 88.6486 26.7415 87.8085 26.7314C86.4863 26.7314 85.3444 26.4314 84.4429 25.7715C83.5509 25.1463 82.9369 24.2 82.73 23.1318H96.1926C96.2497 22.262 96.2798 21.782 96.2798 21.722H96.2828ZM82.6699 20.0722C82.7862 19.0126 83.3019 18.0368 84.1123 17.3426C84.9416 16.6677 85.988 16.316 87.0573 16.3527C88.1244 16.3308 89.1658 16.6808 90.0022 17.3426C90.7959 18.05 91.3079 19.019 91.4446 20.0722H82.6699Z" fill="#FF0657"/>
<path d="M112.609 21.8448H112.624L111.176 25.2614H111.167L108.883 30.6607H104.243L96.7605 12.666H102.079L107.011 24.9104L109.054 20.339H113.249L112.609 21.8448Z" fill="#FF0657"/>
<path d="M119.13 7.29361H114.893L109.872 18.5122H114.028L116.966 11.6131L121.345 21.8417H114.611L113.162 25.2613H122.778L125.122 30.6606H129.63L119.13 7.29361ZM142.6 26.6411C141.837 27.0627 140.977 27.2797 140.105 27.271C138.513 27.271 137.221 26.7611 136.229 25.7412C135.237 24.7514 134.726 23.3715 134.726 21.6918C134.726 20.012 135.237 18.6621 136.259 17.6423C137.276 16.6261 138.667 16.0727 140.105 16.1125C140.977 16.1038 141.837 16.3208 142.6 16.7424C143.377 17.1933 144.029 17.833 144.493 18.6022L147.678 16.7424C147.031 15.4372 145.991 14.3671 144.703 13.6828C143.287 12.9402 141.705 12.5686 140.105 12.6029C138.38 12.5698 136.675 12.9722 135.147 13.7728C133.736 14.5177 132.561 15.6393 131.751 17.0124C130.92 18.4416 130.494 20.0695 130.519 21.7218C130.495 23.3835 130.92 25.021 131.751 26.4611C132.562 27.8511 133.75 28.9844 135.177 29.7307C136.695 30.5274 138.39 30.9298 140.105 30.9006C141.708 30.9494 143.292 30.5437 144.673 29.7307C145.971 29.0359 147.021 27.9564 147.678 26.6411L144.484 24.7814C144.039 25.5625 143.387 26.206 142.6 26.6411ZM163.995 14.5227C162.613 13.2628 160.63 12.6329 158.015 12.6329C156.603 12.6183 155.195 12.8103 153.838 13.2028C152.631 13.5437 151.497 14.104 150.494 14.8556L152.117 17.8852C152.845 17.3144 153.669 16.8776 154.551 16.5954C155.499 16.2733 156.494 16.1111 157.496 16.1155C158.968 16.1155 160.05 16.4154 160.801 17.1053C161.552 17.7953 161.913 18.7251 161.913 19.985V20.3149H157.345C154.791 20.3149 152.928 20.7649 151.756 21.7548C149.823 23.4151 149.412 26.2444 150.794 28.3839C151.371 29.2194 152.173 29.8746 153.108 30.2737C154.207 30.7495 155.396 30.9848 156.594 30.9636C157.758 30.995 158.915 30.7803 159.99 30.3336C160.871 29.956 161.622 29.3306 162.153 28.5339V30.6936H166.06V20.2219C166.069 17.6723 165.378 15.7825 163.995 14.5227ZM161.913 25.1113C161.597 25.9692 160.991 26.6903 160.2 27.1511C159.363 27.6407 158.406 27.8898 157.435 27.871C156.565 27.9151 155.703 27.6842 154.971 27.211C154.389 26.7985 154.051 26.1237 154.07 25.4113C154.07 23.8215 155.272 23.0416 157.646 23.0416H161.913V25.1113ZM184.751 5.88379V15.0026C184.079 14.2096 183.223 13.5919 182.257 13.2028C181.234 12.7972 180.142 12.5935 179.042 12.6029C177.436 12.581 175.853 12.9737 174.444 13.7428C173.104 14.4951 172.004 15.6083 171.268 16.9554C170.466 18.4156 170.062 20.06 170.096 21.7248C170.062 23.399 170.466 25.0531 171.268 26.5241C171.998 27.8777 173.104 28.9921 174.453 29.7337C175.862 30.5028 177.445 30.8955 179.051 30.8736C180.194 30.8907 181.329 30.6764 182.386 30.2437C183.37 29.8296 184.237 29.1807 184.911 28.3539V30.6636H188.877V5.88379H184.751ZM184.09 24.6914C183.646 25.499 182.992 26.1724 182.197 26.6411C180.533 27.561 178.512 27.561 176.848 26.6411C176.04 26.1896 175.382 25.5118 174.955 24.6914C174.032 22.8399 174.032 20.6636 174.955 18.8121C175.399 18.0045 176.053 17.3311 176.848 16.8624C177.663 16.4 178.586 16.1619 179.523 16.1725C180.459 16.1657 181.381 16.4035 182.197 16.8624C183.005 17.3139 183.663 17.9917 184.09 18.8121C185.013 20.6636 185.013 22.8399 184.09 24.6914ZM210.955 21.8417C210.968 20.1384 210.588 18.4551 209.843 16.9224C209.106 15.5666 208.002 14.4443 206.658 13.6828C203.729 12.1525 200.232 12.1637 197.312 13.7128C195.934 14.4734 194.799 15.6067 194.037 16.9824C193.243 18.4128 192.838 20.0264 192.865 21.6618C192.834 23.3204 193.249 24.957 194.067 26.4012C194.87 27.7977 196.059 28.933 197.493 29.6707C199.083 30.4776 200.848 30.8795 202.631 30.8406C204.037 30.8642 205.434 30.6198 206.748 30.1207C207.919 29.6703 208.954 28.9265 209.753 27.961L207.53 25.3813C206.272 26.6765 204.527 27.3842 202.722 27.331C201.219 27.331 199.927 26.9711 198.905 26.1912C197.892 25.4361 197.213 24.3174 197.012 23.0716H210.895C210.934 22.5317 210.964 22.1417 210.964 21.8417H210.955ZM196.952 20.3119C197.243 18.4786 198.499 16.943 200.24 16.2912C201.981 15.6394 203.939 15.9722 205.366 17.1623C206.272 17.9806 206.849 19.1002 206.989 20.3119H196.952ZM242.598 14.5827C241.276 13.2928 239.503 12.6329 237.28 12.6329C235.982 12.6166 234.698 12.8935 233.523 13.4428C232.421 13.939 231.453 14.6895 230.698 15.6325C230.12 14.6729 229.274 13.9018 228.264 13.4128C227.156 12.8945 225.942 12.6379 224.718 12.6629C223.585 12.6486 222.461 12.8628 221.413 13.2928C220.443 13.688 219.586 14.3166 218.919 15.1226V12.8429H214.982V30.6906H219.129V21.6318C219.129 19.892 219.52 18.5722 220.361 17.6423C221.203 16.7124 222.314 16.2625 223.727 16.2625C224.989 16.2625 225.981 16.6824 226.672 17.4623C227.363 18.2422 227.693 19.4121 227.693 20.9719V30.6606H231.84V21.6018C231.84 19.892 232.261 18.5722 233.103 17.6423C233.955 16.7123 235.176 16.207 236.438 16.2625C237.7 16.2625 238.692 16.6824 239.383 17.4623C240.074 18.2422 240.405 19.4121 240.405 20.9719V30.6606H244.552V20.4319C244.552 17.8553 243.93 15.8725 242.607 14.5827H242.598ZM262.071 12.8729L256.482 26.0712L250.922 12.8729H246.625L254.348 30.7806L254.048 31.4705C253.747 32.1873 253.296 32.8316 252.725 33.3603C252.211 33.7564 251.572 33.9582 250.922 33.9302C250.356 33.9249 249.795 33.813 249.27 33.6002C248.741 33.4015 248.26 33.095 247.857 32.7003L246.205 35.76C246.827 36.3 247.553 36.7081 248.338 36.9598C249.183 37.2306 250.065 37.3722 250.953 37.3797C252.388 37.4144 253.798 36.9944 254.979 36.1799C256.091 35.4 257.023 34.0502 257.804 32.1004L266.086 12.8729H262.071ZM266.086 12.8729V12.8429V12.8729Z" fill="white"/>
<path d="M269.109 30.7836C268.393 30.8003 267.701 30.5303 267.186 30.0337C266.653 29.5287 266.368 28.8165 266.405 28.0839C266.405 26.593 267.615 25.3843 269.109 25.3843C270.603 25.3843 271.814 26.593 271.814 28.0839C271.837 28.8069 271.56 29.5074 271.048 30.0189C270.535 30.5304 269.833 30.8072 269.109 30.7836Z" fill="#FF0053"/>
<path d="M42.804 17.4852L42.7859 17.4369L35.6173 0.090332L27.7689 5.37511L27.7117 5.41129L21.96 9.28518L8.30269 0.090332L4.22655 9.96651L1.14012 17.44C1.12606 17.4636 1.11495 17.4889 1.10703 17.5153L0 20.1984L2.17795 22.2394L2.35243 22.4052L7.30697 27.0478L7.40624 27.1383L21.951 40.7798L43.911 20.1894L42.804 17.4852ZM9.31947 25.1154C9.28013 25.0704 9.23683 25.029 9.19012 24.9918L3.30604 19.4779L3.65198 18.6428L3.7332 18.4499C3.7332 18.4499 3.7332 18.4499 3.7332 18.4288L6.78053 11.091L6.81663 11.0006L9.57517 4.34408C9.57386 4.33812 9.57386 4.33195 9.57517 4.32599L21.96 12.6617L34.3358 4.32901L37.1124 11.0367C37.1124 11.0367 37.1124 11.0578 37.1124 11.0699L40.2079 18.5072L40.247 18.6006L40.605 19.4658L21.954 36.9662L9.31947 25.1154Z" fill="white"/>
<path d="M25.5307 24.6724L21.9509 29.315L18.3711 24.6724H25.5307Z" fill="white"/>
<path d="M20.5462 16.7766L15.6127 19.9421L8.30273 14.2744L20.5462 16.7766Z" fill="#FF0657"/>
<path d="M35.6175 14.2744L28.3075 19.9421L23.374 16.7766L35.6175 14.2744Z" fill="#FF0657"/>
</svg>
