<svg width="44" height="50" viewBox="0 0 44 50" fill="none" xmlns="http://www.w3.org/2000/svg">
<path d="M38.8456 0.0400696H5.15453C2.31327 0.0400696 0 2.33634 0 5.18185V38.9277C0 41.7732 2.31309 44.0695 5.15436 44.0695H33.6664L32.3336 39.4519L35.552 42.4221L38.5942 45.2176L44 49.96V5.18185C44 2.33634 41.6869 0.0400696 38.8456 0.0400696ZM29.1405 32.638C29.1405 32.638 28.2355 31.5646 27.4811 30.6161C30.7749 29.6925 32.032 27.6458 32.032 27.6458C31.0011 28.3198 30.0205 28.7941 29.1405 29.1183C27.8835 29.6427 26.6765 29.9919 25.4949 30.1917C23.0811 30.641 20.8685 30.5163 18.9829 30.1668C17.5496 29.8921 16.3176 29.4928 15.2869 29.0936C14.7085 28.8689 14.08 28.5943 13.4513 28.2449C13.376 28.1949 13.3005 28.17 13.2251 28.12C13.1873 28.1014 13.1532 28.076 13.1245 28.0453C12.672 27.7956 12.4205 27.6209 12.4205 27.6209C12.4205 27.6209 13.6275 29.6177 16.8205 30.5661C16.0664 31.5147 15.136 32.6378 15.136 32.6378C9.57928 32.4631 7.46745 28.844 7.46745 28.844C7.46745 20.8068 11.088 14.2922 11.088 14.2922C14.7085 11.5965 18.1531 11.6714 18.1531 11.6714L18.4045 11.971C13.8789 13.2686 11.792 15.2407 11.792 15.2407C11.792 15.2407 12.3451 14.9413 13.2753 14.5169C15.9656 13.3437 18.1029 13.0193 18.9829 12.9444C19.1336 12.9194 19.2595 12.8944 19.4104 12.8944C21.0952 12.6765 22.8004 12.6598 24.4893 12.8446C26.8776 13.1192 29.4424 13.818 32.0571 15.2407C32.0571 15.2407 30.0709 13.3688 25.7965 12.0708L26.1485 11.6716C26.1485 11.6716 29.5931 11.5965 33.2136 14.2924C33.2136 14.2924 36.8344 20.8068 36.8344 28.844C36.8344 28.844 34.6971 32.4633 29.1405 32.638ZM17.4491 20.9816C16.016 20.9816 14.8847 22.2295 14.8847 23.752C14.8847 25.2747 16.0411 26.5226 17.4491 26.5226C18.8824 26.5226 20.0136 25.2747 20.0136 23.752C20.0389 22.2295 18.8822 20.9816 17.4491 20.9816ZM26.6264 20.9816C25.1931 20.9816 24.0616 22.2295 24.0616 23.752C24.0616 25.2747 25.2184 26.5226 26.6264 26.5226C28.0595 26.5226 29.1907 25.2747 29.1907 23.752C29.1907 22.2295 28.0595 20.9816 26.6264 20.9816Z" fill="white"/>
</svg>
