<svg width="346" height="346" viewBox="0 0 346 346" fill="none" xmlns="http://www.w3.org/2000/svg">
<path d="M173 346C268.545 346 346 268.545 346 173C346 77.4547 268.545 0 173 0C77.4547 0 0 77.4547 0 173C0 268.545 77.4547 346 173 346Z" fill="#393A59"/>
<path d="M317.586 144.969C317.586 186.146 300.421 223.311 272.853 249.701C263.722 258.446 253.445 266.003 242.274 272.132C221.606 283.481 197.86 289.937 172.618 289.937C147.376 289.937 123.643 283.487 102.974 272.138C99.6427 270.315 96.3949 268.363 93.2349 266.286C85.7797 261.405 78.8029 255.843 72.3891 249.7C44.8213 223.316 27.6497 186.145 27.6497 144.969C27.6497 64.9047 92.5544 0 172.618 0C252.682 0 317.586 64.9054 317.586 144.969Z" fill="#6A6577"/>
<path d="M125.803 157.846C117.71 159.35 110.656 165.077 107.839 173.437C106.808 176.508 106.448 179.644 106.688 182.687C106.766 183.774 106.928 184.847 107.155 185.907C106.794 185.865 106.434 185.837 106.074 185.815C105.763 185.801 105.452 185.787 105.149 185.78C97.3179 185.575 89.7769 188.64 84.3044 194.084C82.4967 195.892 80.9079 197.954 79.6226 200.249C78.7542 201.788 78.0129 203.44 77.4337 205.177C74.8137 212.973 75.753 221.107 79.3827 227.808L79.0718 227.964C75.9152 221.023 70.0123 215.36 62.2097 212.74C49.7605 208.559 36.4503 213.467 29.4809 223.882C29.2829 224.185 29.0856 224.489 28.895 224.8C26.2331 221.679 22.7164 219.221 18.5502 217.816C14.2502 216.375 9.82247 216.248 5.70561 217.216C4.85818 214.018 4.11009 210.79 3.4458 207.521L17.1588 182.038L22.3346 187.291C28.718 193.773 38.533 195.419 46.6749 191.365L39.8961 177.723L44.0623 178.669C51.0884 180.279 58.2692 176.706 61.2352 170.14L62.9929 166.242L69.7717 179.891C75.8017 176.89 79.8976 171.284 81.0836 164.921C81.4999 162.69 81.5641 160.36 81.2181 158.022L80.1591 150.721L83.3792 151.223L125.803 157.846Z" fill="#393A59"/>
<path d="M319.567 216.427C319.142 218.302 316.583 218.585 315.77 216.843C313.375 211.722 309.133 207.449 303.497 205.116C300.502 203.876 297.398 203.304 294.349 203.334C293.257 203.34 292.175 203.426 291.106 203.585C291.168 203.226 291.22 202.869 291.266 202.509C291.305 202.201 291.341 201.894 291.37 201.59C292.106 193.789 289.559 186.055 284.496 180.231C282.823 178.299 280.87 176.58 278.667 175.138C277.187 174.165 275.593 173.318 273.897 172.617C266.296 169.475 258.122 169.864 251.188 173.028L251.053 172.703C258.191 170.031 264.241 164.522 267.385 156.92C272.405 144.782 268.416 131.169 258.496 123.509C258.209 123.288 257.919 123.072 257.621 122.862C260.914 120.416 263.609 117.076 265.292 113.013C267.622 107.376 267.593 101.355 265.66 96.0433C265.003 94.2356 267.01 92.6245 268.638 93.6483L298.764 112.599C299.917 113.325 300.039 114.96 299.005 115.848L295.491 118.866C289.167 124.295 286.7 132.882 289.014 140.743C289.355 141.904 290.623 142.518 291.74 142.055L299.9 138.67C301.477 138.015 303.105 139.489 302.613 141.123L302.612 141.128C300.534 148.029 303.607 155.437 309.959 158.841C311.466 159.646 311.357 161.841 309.78 162.495L301.623 165.879C300.503 166.343 300.048 167.677 300.63 168.742C303.447 173.891 308.258 177.567 313.813 178.998C316.013 179.568 318.332 179.785 320.687 179.604L325.307 179.249C326.665 179.144 327.737 180.384 327.436 181.713L327.321 182.218L319.567 216.427Z" fill="#393A59"/>
<path d="M142.723 21.99C144.482 22.7671 144.268 25.3331 142.402 25.7973C136.917 27.1644 131.909 30.5062 128.536 35.5894C126.746 38.2912 125.588 41.2268 125.031 44.2252C124.827 45.2983 124.703 46.3762 124.654 47.4554C124.314 47.3257 123.973 47.2067 123.629 47.0919C123.334 46.9952 123.04 46.9013 122.747 46.8141C115.232 44.5942 107.154 45.6072 100.465 49.4585C98.2486 50.7303 96.1861 52.3163 94.348 54.2011C93.1093 55.4661 91.9712 56.8684 90.9569 58.3977C86.4143 65.2535 85.2256 73.3507 86.9995 80.7627L86.6549 80.8323C85.4026 73.3142 81.1587 66.3185 74.3023 61.7725C63.3553 54.5153 49.2287 55.8169 39.8063 64.0803C39.5347 64.3202 39.2664 64.5628 39.0035 64.8149C37.2357 61.113 34.4751 57.828 30.8103 55.3959C25.7257 52.0271 19.8106 50.8985 14.2267 51.775C12.3264 52.073 11.1302 49.7936 12.448 48.3927L36.8315 22.4684C37.7648 21.4757 39.3927 21.6703 40.0658 22.8557L42.3527 26.8833C46.4668 34.1331 54.4201 38.2026 62.5795 37.441C63.7837 37.3289 64.6298 36.2023 64.3899 35.0177L62.6349 26.3603C62.2957 24.687 64.0534 23.3713 65.5637 24.1687L65.5685 24.1714C71.9418 27.5361 79.8024 25.9433 84.3626 20.3627C85.4425 19.0395 87.5746 19.566 87.9145 21.2405L89.6688 29.8953C89.9094 31.084 91.1319 31.7861 92.2882 31.4198C97.8836 29.6439 102.414 25.6284 104.885 20.4519C105.867 18.4023 106.526 16.1674 106.8 13.8211L107.339 9.21907C107.497 7.86615 108.92 7.05251 110.166 7.6026L110.639 7.81141L142.723 21.99Z" fill="#393A59"/>
<path d="M292.61 297.984C281.714 308.42 269.449 317.437 256.118 324.753C231.453 338.296 203.116 346 172.993 346C142.87 346 114.548 338.303 89.8832 324.759C76.5513 317.451 64.2859 308.427 53.3835 297.983C64.4488 269.893 91.3591 249.783 123.106 248.653C124.038 248.61 124.984 248.589 125.931 248.589H220.064C221.01 248.589 221.956 248.61 222.888 248.653C254.635 249.783 281.546 269.894 292.61 297.984Z" fill="#282942"/>
<path d="M172.993 303.18C172.993 303.18 292.804 216.202 288.499 208.373C282.067 196.673 272.517 188.691 263.085 183.276C247.25 174.189 231.721 172.346 231.721 172.346L136.35 253.29L172.993 303.18Z" fill="#D863BB"/>
<path d="M172.993 303.181C172.993 303.181 292.804 216.202 288.498 208.373C282.067 196.673 272.517 188.692 263.084 183.276C272.728 193.948 281.991 210.182 267.742 224.424C265.44 226.726 262.907 228.285 260.209 229.223C250.79 232.499 242.027 237.418 234.806 244.296L172.993 303.181Z" fill="#282942"/>
<path d="M172.993 303.18C172.993 303.18 53.1827 216.202 57.4881 208.373C63.9195 196.673 73.4696 188.691 82.9022 183.276C98.7371 174.189 114.266 172.346 114.266 172.346L172.993 303.18Z" fill="#D863BB"/>
<path d="M272.109 101.167L239.108 120.63V160.221C239.108 169.334 246.496 176.722 255.609 176.722C264.722 176.722 272.109 169.334 272.109 160.221V101.167Z" fill="#CCCCCC"/>
<path d="M73.875 101.167L106.876 120.63V160.221C106.876 169.334 99.4885 176.722 90.3756 176.722C81.2626 176.722 73.875 169.334 73.875 160.221V101.167V101.167Z" fill="#CCCCCC"/>
<path d="M209.642 208.275V247.641C209.642 267.88 193.235 284.287 172.996 284.287C152.757 284.287 136.351 267.88 136.351 247.641V208.275H209.642Z" fill="#CCCCCC"/>
<path d="M254.586 98.0243V167.21C254.586 189.743 245.455 210.142 230.698 224.9C215.918 239.68 195.526 248.803 172.993 248.803C127.929 248.803 91.4009 212.275 91.4009 167.21V98.0243C91.4009 94.3027 91.6482 90.6312 92.1355 87.0442C93.6323 75.8802 97.3957 65.4367 102.946 56.1799C117.189 32.3694 228.805 32.3694 243.041 56.1799C248.591 65.4374 252.354 75.8809 253.851 87.0442C254.338 90.6312 254.586 94.3027 254.586 98.0243Z" fill="#EDEDED"/>
<path d="M115.039 167.21V98.0252C115.039 56.9789 145.354 23.0223 184.814 17.2944C180.954 16.7335 177.009 16.4314 172.993 16.4314C127.931 16.4314 91.3987 52.9634 91.3987 98.0252V167.21C91.3987 212.272 127.931 248.804 172.993 248.804C177.009 248.804 180.953 248.501 184.815 247.941C145.354 242.213 115.039 208.257 115.039 167.21Z" fill="#CCCCCC"/>
<path d="M213.61 151.148V135.51C213.61 131.432 210.305 128.125 206.225 128.125C202.147 128.125 198.841 131.431 198.841 135.51V151.148C198.841 155.226 202.146 158.533 206.225 158.533C210.305 158.532 213.61 155.226 213.61 151.148Z" fill="#393A59"/>
<path d="M132.38 135.509V151.147C132.38 155.225 135.686 158.532 139.765 158.532C143.844 158.532 147.15 155.226 147.15 151.147V135.509C147.15 131.431 143.844 128.125 139.765 128.125C135.686 128.125 132.38 131.431 132.38 135.509Z" fill="#393A59"/>
<path d="M208.786 143.077C211.451 143.077 213.611 140.917 213.611 138.252C213.611 135.588 211.451 133.427 208.786 133.427C206.121 133.427 203.961 135.588 203.961 138.252C203.961 140.917 206.121 143.077 208.786 143.077Z" fill="#7F7D89"/>
<path d="M142.326 143.077C144.991 143.077 147.151 140.917 147.151 138.252C147.151 135.588 144.991 133.427 142.326 133.427C139.661 133.427 137.501 135.588 137.501 138.252C137.501 140.917 139.661 143.077 142.326 143.077Z" fill="#7F7D89"/>
<path d="M203.391 152.486C204.923 152.486 206.165 151.244 206.165 149.712C206.165 148.18 204.923 146.938 203.391 146.938C201.859 146.938 200.617 148.18 200.617 149.712C200.617 151.244 201.859 152.486 203.391 152.486Z" fill="#7F7D89"/>
<path d="M136.938 152.486C138.47 152.486 139.712 151.244 139.712 149.712C139.712 148.18 138.47 146.938 136.938 146.938C135.406 146.938 134.164 148.18 134.164 149.712C134.164 151.244 135.406 152.486 136.938 152.486Z" fill="#7F7D89"/>
<path d="M109.442 87.0444C109.442 87.8966 109.476 88.7413 109.542 89.5773C110.327 99.5592 106.72 109.443 99.1496 115.998C96.7837 118.047 94.1853 119.835 91.4004 121.32V98.0252C91.4004 82.7235 95.6092 68.4172 102.945 56.1802C107.38 61.1161 110.656 67.1109 112.358 73.7417C110.487 77.7869 109.442 82.2991 109.442 87.0444Z" fill="#282942"/>
<path d="M254.586 98.024V121.319C251.801 119.834 249.203 118.045 246.837 115.996C239.268 109.442 235.659 99.558 236.445 89.576C236.51 88.7401 236.544 87.8953 236.544 87.0432C236.544 82.2979 235.499 77.7857 233.628 73.7398C235.33 67.109 238.606 61.1141 243.04 56.1782C250.377 68.4159 254.586 82.7222 254.586 98.024Z" fill="#282942"/>
<path d="M120.886 131.019L150.739 142.561L157.359 125.438L127.506 113.896L120.886 131.019Z" fill="#EDEDED"/>
<path d="M218.489 113.898L188.635 125.44L195.256 142.564L225.109 131.022L218.489 113.898Z" fill="#EDEDED"/>
<path d="M211.597 174.13C211.597 187.306 204.994 198.943 194.911 205.905C188.683 210.213 181.134 212.733 172.993 212.733C164.851 212.733 157.302 210.213 151.074 205.905C140.991 198.943 134.389 187.306 134.389 174.13C137.962 175.917 141.634 177.442 145.369 178.706C149.281 180.026 153.263 181.064 157.281 181.805C162.471 182.766 167.731 183.246 172.992 183.246C178.252 183.246 183.513 182.766 188.703 181.805C192.721 181.064 196.704 180.026 200.615 178.706C204.352 177.441 208.024 175.916 211.597 174.13Z" fill="#393A59"/>
<path d="M194.911 205.905C188.683 210.212 181.134 212.733 172.993 212.733C164.851 212.733 157.302 210.212 151.074 205.905C157.302 201.597 164.851 199.077 172.993 199.077C181.134 199.077 188.683 201.597 194.911 205.905Z" fill="#E87BC2"/>
<path d="M218.484 114.818H127.502L153.023 133.956H155.837C160.756 133.956 164.743 137.943 164.743 142.862V156.671C164.743 161.216 168.298 165.114 172.841 165.197C177.47 165.281 181.249 161.554 181.249 156.945V142.862C181.249 137.943 185.236 133.956 190.155 133.956H192.964L218.484 114.818Z" fill="#CCCCCC"/>
<path d="M200.616 178.705C200.193 181.954 199.458 185.025 198.653 187.715C196.845 193.759 194.649 197.905 194.649 197.905L190.857 187.638L188.704 181.805C192.722 181.064 196.704 180.026 200.616 178.705Z" fill="#F0F0F0"/>
<path d="M157.282 181.805L155.128 187.638L151.337 197.905C151.337 197.905 149.14 193.76 147.333 187.716C146.528 185.025 145.793 181.954 145.369 178.706C149.281 180.026 153.264 181.064 157.282 181.805Z" fill="#F0F0F0"/>
<path d="M114.625 120.115L121.608 109.249C122.854 107.311 125.437 106.748 127.377 107.994L155.949 126.359C159.849 128.866 157.366 134.912 152.83 133.955L117.274 126.455C114.415 125.853 113.045 122.574 114.625 120.115Z" fill="#393A59"/>
<path d="M231.361 120.115L224.377 109.249C223.131 107.311 220.548 106.748 218.609 107.994L190.037 126.359C186.137 128.866 188.619 134.912 193.155 133.955L228.71 126.455C231.57 125.853 232.941 122.574 231.361 120.115Z" fill="#393A59"/>
<path d="M181.937 226.855H164.049C162.229 226.855 160.753 225.38 160.753 223.56C160.753 221.74 162.229 220.264 164.049 220.264H181.937C183.757 220.264 185.233 221.739 185.233 223.56C185.232 225.381 183.757 226.855 181.937 226.855Z" fill="#CCCCCC"/>
<path d="M243.04 56.1791C228.805 32.3686 202.763 16.4316 172.992 16.4316C143.23 16.4316 117.188 32.3686 102.945 56.1791C97.3948 65.4366 93.6314 75.8801 92.1345 87.0433H109.441C109.441 69.496 123.67 55.2681 141.217 55.2681C141.643 55.2681 142.068 55.2769 142.49 55.2938C157.389 55.8817 168.994 68.5026 168.994 83.413V87.7543C168.994 89.962 170.784 91.7522 172.992 91.7522C175.2 91.7522 176.99 89.962 176.99 87.7543V83.413C176.99 68.5026 188.595 55.8817 203.493 55.2938C203.915 55.2769 204.341 55.2681 204.767 55.2681C222.314 55.2681 236.542 69.4967 236.542 87.0433H253.849C252.354 75.8801 248.59 65.4366 243.04 56.1791Z" fill="#282942"/>
<path d="M172.993 303.181C172.993 303.181 53.1824 216.202 57.4878 208.374C63.9192 196.674 73.4694 188.692 82.9019 183.276C73.2579 193.948 63.9956 210.183 78.2445 224.425C80.5462 226.726 83.079 228.285 85.7767 229.223C95.1964 232.499 103.959 237.418 111.18 244.297L172.993 303.181Z" fill="#282942"/>
<path d="M201.678 298.084L174.948 307.989C173.689 308.456 172.304 308.456 171.045 307.989L144.315 298.084C140.648 296.725 136.749 299.438 136.749 303.35V319.832C136.749 323.743 140.648 326.457 144.315 325.098L171.045 315.192C172.304 314.725 173.689 314.725 174.948 315.192L201.678 325.098C205.345 326.457 209.244 323.743 209.244 319.832V303.35C209.244 299.438 205.346 296.725 201.678 298.084Z" fill="#E87BC2"/>
<path d="M198.654 187.716C196.846 193.76 194.65 197.905 194.65 197.905L190.858 187.638C192.037 187.2 193.315 186.96 194.65 186.96C196.062 186.96 197.411 187.229 198.654 187.716Z" fill="#E87BC2"/>
<path d="M155.128 187.638L151.337 197.905C151.337 197.905 149.14 193.76 147.333 187.716C148.575 187.229 149.924 186.96 151.337 186.96C152.671 186.96 153.949 187.2 155.128 187.638Z" fill="#E87BC2"/>
</svg>
