<svg width="46" height="68" viewBox="0 0 46 68" fill="none" xmlns="http://www.w3.org/2000/svg">
<path d="M11.3333 67.9999C17.5893 67.9999 22.6667 62.9226 22.6667 56.6666V45.3333H11.3333C5.07733 45.3333 0 50.4106 0 56.6666C0 62.9226 5.07733 67.9999 11.3333 67.9999Z" fill="#24CE85"/>
<path d="M0 34.0001C0 27.7441 5.07733 22.6667 11.3333 22.6667H22.6667V45.3334H11.3333C5.07733 45.3334 0 40.2561 0 34.0001Z" fill="#A160FC"/>
<path d="M0 11.3333C0 5.07733 5.07733 0 11.3333 0H22.6667V22.6667H11.3333C5.07733 22.6667 0 17.5893 0 11.3333Z" fill="#F04F2B"/>
<path d="M22.6667 0H34.0001C40.2561 0 45.3334 5.07733 45.3334 11.3333C45.3334 17.5893 40.2561 22.6667 34.0001 22.6667H22.6667V0Z" fill="#FD7366"/>
<path d="M45.3334 34.0001C45.3334 40.2561 40.2561 45.3334 34.0001 45.3334C27.7441 45.3334 22.6667 40.2561 22.6667 34.0001C22.6667 27.7441 27.7441 22.6667 34.0001 22.6667C40.2561 22.6667 45.3334 27.7441 45.3334 34.0001Z" fill="#2CBDFB"/>
</svg>
