<svg width="200" height="84" viewBox="0 0 200 84" fill="none" xmlns="http://www.w3.org/2000/svg">
<path d="M67.6076 83.9802H11.5032C5.15172 83.9802 0 78.8285 0 72.477V13.6909C0 12.7734 0.776305 11.9972 1.69374 11.9972C2.61117 11.9972 3.38745 12.7734 3.38745 13.6909V72.477C3.38745 76.9936 7.05715 80.5928 11.5032 80.5928H67.6076C68.525 80.5928 69.3013 81.369 69.3013 82.2865C69.2307 83.2039 68.525 83.9802 67.6076 83.9802Z" fill="url(#paint0_linear)"/>
<path d="M79.4636 0H11.856C9.66828 0 7.83344 1.7643 7.83344 4.02259V71.6302C7.83344 73.8179 9.59771 75.6528 11.856 75.6528H79.4636C81.6513 75.6528 83.4862 73.8885 83.4862 71.6302V4.02259C83.4156 1.7643 81.6513 0 79.4636 0ZM42.4841 60.4799C42.4841 62.597 42.2018 64.3613 41.6372 65.7727C41.0727 67.1842 40.2964 68.2427 39.2378 69.0896C38.2498 69.9365 36.1326 70.501 34.7918 70.7833C33.4509 71.1362 29.1461 71.2773 27.5229 71.2773C26.8172 71.2773 25.2646 71.2773 24.7 71.2067C24.1355 71.1362 23.4298 71.1362 22.5829 70.995C21.9478 70.9245 21.6655 70.5716 21.6655 69.9365V63.585C21.6655 63.3733 21.736 63.1616 21.8772 63.0204C22.0183 62.8087 22.1595 62.7381 22.3712 62.7381H26.4643C27.17 62.7381 31.4043 62.5264 31.6161 62.1736C31.8278 61.8207 31.8984 61.2562 31.8984 60.4799V24.3472C31.8984 23.9943 32.0395 23.712 32.2512 23.5003C32.5335 23.2886 32.8158 23.1475 33.0981 23.1475H41.2844C41.6372 23.1475 41.9195 23.2886 42.1312 23.5003C42.4135 23.712 42.4841 23.9943 42.4841 24.3472V60.4799ZM76.923 61.9619C76.3585 63.585 75.3705 65.067 74.0296 66.3373C72.6887 67.6076 70.9245 68.6662 68.7367 69.513C66.549 70.3599 63.9379 70.7128 60.7622 70.7128C58.2921 70.7128 56.0338 70.5716 54.199 70.3599C52.2935 70.0776 50.5998 69.7953 48.9767 69.3719C48.6238 69.3013 48.3415 69.1602 48.1298 68.9485C47.8475 68.7367 47.777 68.4545 47.777 68.1016V61.9619C47.777 61.5384 47.8475 61.1856 48.0593 61.0444C48.271 60.9033 48.5532 60.7622 48.9061 60.7622H49.1178C49.753 60.8327 50.5998 60.9033 51.729 61.0444C52.8581 61.115 53.9873 61.1856 55.1164 61.2561C56.3161 61.3267 57.3747 61.3973 58.4333 61.4679C59.4918 61.5384 60.3387 61.5384 60.9739 61.5384C63.1616 61.5384 64.573 61.1856 65.3493 60.4799C66.1256 59.7742 66.4784 58.645 66.4784 57.163C66.4784 56.2456 66.1961 55.4693 65.6316 54.8341C65.067 54.199 64.0084 53.4227 62.3853 52.4347L53.7755 47.283C52.2935 46.4361 51.0938 45.5187 50.1764 44.6013C49.259 43.6838 48.4827 42.6958 47.9181 41.7078C47.3535 40.7198 46.9301 39.6612 46.7184 38.6027C46.5067 37.5441 46.3655 36.415 46.3655 35.3564C46.3655 33.6627 46.6478 32.0395 47.1418 30.5575C47.6358 29.0755 48.5533 27.8052 49.8236 26.6761C51.0938 25.5469 52.717 24.7001 54.7636 24.0649C56.8101 23.4298 59.3507 23.1475 62.3853 23.1475C63.5144 23.1475 64.7142 23.2181 66.055 23.2886C67.3959 23.3592 68.5956 23.5003 69.8659 23.5709C71.0656 23.7121 72.1947 23.8532 73.2533 23.9943C74.3119 24.1355 75.0882 24.3472 75.7233 24.4884C76.0056 24.5589 76.2173 24.7001 76.3585 24.8412C76.5702 24.9824 76.6408 25.2646 76.6408 25.6175V31.8984C76.6408 32.1807 76.5702 32.4629 76.429 32.6746C76.2879 32.8864 76.0056 32.9569 75.5822 32.9569H75.2999C74.8765 32.8864 74.1002 32.8864 73.1122 32.8158C72.1242 32.7452 70.9244 32.6747 69.6542 32.6041C68.3839 32.5335 67.043 32.4629 65.7022 32.3924C64.3613 32.3218 63.1616 32.3218 62.103 32.3218C60.3387 32.3218 59.0684 32.6041 58.2921 33.1687C57.5864 33.7332 57.2336 34.5095 57.2336 35.6387C57.2336 36.0621 57.3041 36.4855 57.4453 36.8384C57.5864 37.1912 57.7981 37.4735 58.0804 37.8264C58.3627 38.1087 58.7861 38.4615 59.3507 38.8144C59.9153 39.1672 60.5504 39.5907 61.3973 40.0141L69.3719 44.319C72.6181 46.0832 74.8059 47.9887 76.0056 50.0353C77.2053 52.1524 77.7699 54.4107 77.7699 56.9513C77.8405 58.7156 77.5582 60.3387 76.923 61.9619Z" fill="white"/>
<path d="M105.857 70.2187C104.94 70.3598 104.164 70.501 103.529 70.5716C102.893 70.6421 102.117 70.7127 101.2 70.7127C99.5766 70.7127 98.1651 70.5716 96.9654 70.3599C95.7657 70.0776 94.7071 69.5836 93.8603 68.8778C93.0134 68.1016 92.3782 67.1136 91.9548 65.7727C91.5314 64.4318 91.3197 62.7381 91.3197 60.6915V43.6132L86.5914 42.6958C86.3091 42.6252 85.9562 42.4841 85.7445 42.2723C85.4622 42.0606 85.3917 41.7783 85.3917 41.4961V37.6146C85.3917 37.3323 85.5328 37.0501 85.7445 36.7678C86.0268 36.4855 86.3091 36.4149 86.5914 36.4149H91.3197V31.5455C91.3197 31.2632 91.4608 30.9809 91.6726 30.7692C91.8843 30.5575 92.1666 30.4163 92.5194 30.3458L99.6471 29.0755H99.7883C100.071 29.0755 100.353 29.146 100.565 29.3578C100.776 29.5695 100.847 29.7812 100.847 30.0635V36.3443H105.716C105.999 36.3443 106.281 36.4855 106.563 36.6972C106.775 36.9089 106.916 37.1912 106.916 37.5441V42.3429C106.916 42.6958 106.775 42.9075 106.563 43.1898C106.351 43.4015 106.069 43.5426 105.716 43.5426H100.847V60.6915C100.847 61.8913 100.917 62.597 101.129 62.9498C101.341 63.3027 101.905 63.4438 102.752 63.4438H105.646C106.493 63.4438 106.916 63.7967 106.916 64.4318V69.019C106.987 69.7247 106.634 70.0776 105.857 70.2187Z" fill="white"/>
<path d="M137.756 69.019C137.756 69.3013 137.615 69.5835 137.403 69.8658C137.191 70.0775 136.909 70.2187 136.556 70.2187H129.922C129.64 70.2187 129.358 70.0775 129.076 69.8658C128.864 69.6541 128.723 69.3718 128.723 69.019V68.1015C127.593 68.9484 126.394 69.5835 125.123 70.0775C123.853 70.5715 122.301 70.7833 120.536 70.7833C119.266 70.7833 117.996 70.6421 116.796 70.2893C115.596 69.9364 114.538 69.3718 113.55 68.5956C112.632 67.8193 111.856 66.7607 111.291 65.4904C110.727 64.2201 110.445 62.597 110.445 60.6209V60.0564C110.445 56.5984 111.574 54.0578 113.903 52.5052C116.231 50.8821 119.901 50.1058 124.982 50.1058H128.158V47.9886C128.158 46.2949 127.735 45.1658 126.958 44.6718C126.182 44.1778 125.123 43.8955 123.712 43.8955C122.795 43.8955 121.807 43.8955 120.819 43.8955C119.831 43.8955 118.913 43.966 118.066 43.966C117.149 44.0366 116.373 44.0366 115.667 44.1072C114.961 44.1778 114.397 44.2483 113.903 44.2483H113.62C113.338 44.2483 113.056 44.1778 112.844 44.0366C112.632 43.8955 112.562 43.6132 112.562 43.1898V38.3909C112.562 37.7557 112.915 37.2618 113.691 37.1206C114.82 36.8383 116.302 36.556 118.137 36.2737C119.972 35.9915 121.948 35.8503 123.924 35.8503C126.041 35.8503 127.946 36.062 129.711 36.556C131.404 36.9795 132.886 37.6852 134.016 38.6732C135.215 39.6612 136.133 40.8609 136.768 42.4135C137.403 43.8955 137.756 45.8009 137.756 47.9181V69.019ZM128.37 55.6809H124.982C123.924 55.6809 123.147 55.7515 122.442 55.9632C121.807 56.1749 121.242 56.3867 120.819 56.7395C120.395 57.0924 120.183 57.5158 119.972 58.0804C119.831 58.6449 119.76 59.2801 119.76 59.9858V60.5504C119.76 61.8207 120.042 62.597 120.677 62.9498C121.313 63.3027 122.23 63.5144 123.5 63.5144C124.418 63.5144 125.265 63.3732 126.041 63.1615C126.817 62.8792 127.593 62.597 128.299 62.2441V55.6809H128.37Z" fill="white"/>
<path d="M165.349 69.3718C165.138 69.5835 164.855 69.7247 164.432 69.7952C163.585 70.007 162.526 70.2187 161.186 70.3598C159.845 70.5715 158.292 70.6421 156.528 70.6421C152.364 70.6421 149.047 69.3718 146.507 66.8312C144.037 64.2907 142.766 60.5504 142.766 55.7515V50.8115C142.766 45.942 144.037 42.2723 146.507 39.7317C148.977 37.1912 152.364 35.9209 156.528 35.9209C158.292 35.9209 159.845 35.9914 161.186 36.2032C162.526 36.4149 163.585 36.6266 164.432 36.7677C164.855 36.9089 165.208 37.05 165.349 37.1912C165.561 37.4029 165.632 37.6852 165.632 38.1086V43.3309C165.632 43.6132 165.49 43.8955 165.279 44.0366C165.067 44.2483 164.785 44.3189 164.503 44.3189H164.361C163.232 44.1777 162.174 44.1072 161.186 44.0366C160.198 43.966 158.857 43.8955 157.163 43.8955C156.528 43.8955 155.893 44.0366 155.258 44.2483C154.693 44.46 154.128 44.8129 153.705 45.3775C153.282 45.942 152.929 46.6477 152.646 47.4946C152.364 48.412 152.294 49.4706 152.294 50.7409V55.6809C152.294 56.9512 152.435 58.0804 152.646 58.9272C152.929 59.8446 153.211 60.5504 153.705 61.0444C154.128 61.6089 154.622 61.9618 155.258 62.1735C155.822 62.3852 156.457 62.5264 157.163 62.5264C158.857 62.5264 160.198 62.4558 161.186 62.3852C162.174 62.3146 163.232 62.1735 164.361 62.1029H164.503C164.785 62.1029 165.067 62.1735 165.279 62.3852C165.49 62.5969 165.632 62.8086 165.632 63.0909V68.3132C165.702 68.8778 165.561 69.1601 165.349 69.3718Z" fill="white"/>
<path d="M200 36.9795C200 37.1912 199.929 37.4029 199.788 37.5441L188.779 52.5052L199.718 68.8779C199.788 68.9484 199.859 69.0896 199.859 69.3718C199.859 69.8659 199.577 70.1481 199.083 70.1481H190.191C189.908 70.1481 189.626 70.0776 189.414 70.007C189.203 69.9364 188.991 69.6542 188.709 69.3013L180.24 55.3987V68.8779C180.24 69.1601 180.099 69.513 179.887 69.7247C179.675 70.007 179.393 70.0776 179.04 70.0776H171.912C171.63 70.0776 171.277 69.9364 171.066 69.7247C170.783 69.4424 170.713 69.1601 170.713 68.8779V26.0409C170.713 25.7586 170.854 25.4763 171.066 25.194C171.348 24.9823 171.63 24.8412 171.912 24.8412H179.04C179.322 24.8412 179.605 24.9823 179.887 25.194C180.169 25.4058 180.24 25.688 180.24 26.0409V50.741L189.203 37.2618C189.414 36.9089 189.697 36.6972 189.979 36.5561C190.261 36.4149 190.543 36.3443 190.755 36.3443H199.224C199.718 36.3443 200 36.5561 200 36.9795Z" fill="white"/>
<defs>
<linearGradient id="paint0_linear" x1="-0.0227946" y1="48.0149" x2="69.248" y2="48.0149" gradientUnits="userSpaceOnUse">
<stop stop-color="#40CBF6"/>
<stop offset="1" stop-color="#82C041"/>
</linearGradient>
</defs>
</svg>
