<svg width="113" height="68" viewBox="0 0 113 68" fill="none" xmlns="http://www.w3.org/2000/svg">
<path d="M26.4962 17.7351H47.676V19.425H28.4382V32.1422H46.5286V33.8321H28.4382V47.7944H47.8965V49.4843H26.4962V17.7351ZM49.5731 17.7351H51.8238L61.7959 31.6974L71.9885 17.7351L85.8521 0L63.0756 33.165L74.8125 49.4843H72.4736L61.7959 34.6325L51.0741 49.4843H48.7793L60.6044 33.165L49.5739 17.7351H49.5731ZM75.6511 19.425V17.7351H99.7864V19.425H88.6677V49.4836H86.7258V19.425H75.6519H75.6511ZM0 17.7351H2.42707L35.8912 68L22.0618 49.4843L2.0294 20.1363L1.9412 49.4843H0V17.7351ZM99.5918 47.2842C99.1941 47.2842 98.8968 46.9758 98.8968 46.5775C98.8968 46.1784 99.1941 45.87 99.591 45.87C99.9925 45.87 100.285 46.1784 100.285 46.5775C100.285 46.9758 99.9925 47.2842 99.591 47.2842H99.5918ZM101.499 45.4237H102.538C102.553 45.9888 102.964 46.368 103.568 46.368C104.243 46.368 104.625 45.9606 104.625 45.196V40.3556H105.683V45.2006C105.683 46.5775 104.89 47.3702 103.577 47.3702C102.345 47.3702 101.5 46.6011 101.5 45.4237H101.499ZM107.066 45.3628H108.115C108.204 46.0124 108.837 46.4251 109.749 46.4251C110.598 46.4251 111.221 45.9834 111.221 45.3765C111.221 44.8548 110.825 44.5411 109.923 44.3278L109.045 44.1146C107.813 43.8252 107.25 43.2266 107.25 42.2206C107.25 41.0006 108.242 40.1888 109.729 40.1888C111.113 40.1888 112.124 41.0006 112.185 42.1536H111.155C111.056 41.523 110.509 41.1285 109.715 41.1285C108.879 41.1285 108.322 41.5322 108.322 42.149C108.322 42.6379 108.681 42.9182 109.569 43.1269L110.32 43.3119C111.717 43.6394 112.294 44.209 112.294 45.2386C112.294 46.5485 111.282 47.3702 109.668 47.3702C108.157 47.3702 107.141 46.5866 107.066 45.362V45.3628Z" fill="white"/>
</svg>
