<svg width="62" height="68" viewBox="0 0 62 68" fill="none" xmlns="http://www.w3.org/2000/svg">
<path d="M28.2097 0.863312C29.8954 -0.0976108 32.0911 -0.101951 33.7754 0.863312C42.2489 5.63151 50.725 10.3922 59.1971 15.1633C60.7906 16.0572 61.8564 17.8233 61.8402 19.6518V48.3391C61.8521 50.2434 60.6809 52.0517 58.9997 52.9253C50.5541 57.6672 42.1128 62.4149 33.6686 67.1568C31.948 68.1366 29.7082 68.0611 28.0414 67.0011C25.5094 65.5393 22.973 64.0848 20.4408 62.6245C19.9233 62.3172 19.34 62.0727 18.9746 61.5731C19.2977 61.1395 19.8751 61.0855 20.3444 60.8962C21.4013 60.5615 22.372 60.0243 23.343 59.503C23.5885 59.3356 23.8883 59.3998 24.1236 59.5495C26.2888 60.7858 28.4348 62.058 30.6073 63.2825C31.0707 63.549 31.54 63.1952 31.9361 62.9753C40.2239 58.3106 48.5218 53.6634 56.8082 48.9972C57.1152 48.8501 57.2849 48.5255 57.26 48.1906C57.2658 38.7273 57.2615 29.2622 57.2629 19.7989C57.298 19.4189 57.0772 19.0695 56.7321 18.9139C48.3158 14.1937 39.9038 9.46628 31.4889 4.74486C31.3431 4.64504 31.1704 4.59148 30.9935 4.59123C30.8165 4.59097 30.6437 4.64402 30.4976 4.74341C22.0827 9.46628 13.6721 14.1981 5.25724 18.918C4.91341 19.0738 4.68266 19.4174 4.72358 19.7989C4.72503 29.2622 4.72358 38.7273 4.72358 48.1921C4.70899 48.3555 4.74503 48.5194 4.82685 48.6618C4.90867 48.8042 5.03234 48.9182 5.18121 48.9885C7.42677 50.2566 9.67523 51.5159 11.9222 52.7796C13.1881 53.4582 14.7424 53.8614 16.1371 53.3415C17.3678 52.9019 18.2306 51.6511 18.2071 50.3497C18.2187 40.9416 18.2013 31.532 18.2158 22.1254C18.185 21.7077 18.5829 21.3627 18.9906 21.402C20.0696 21.3947 21.15 21.3875 22.2289 21.4049C22.6793 21.3947 22.9892 21.8445 22.9335 22.2652C22.9292 31.7329 22.9452 41.2008 22.9263 50.6685C22.9292 53.1917 21.8883 55.9373 19.5446 57.1719C16.6574 58.6614 13.0888 58.3455 10.2365 56.9173C7.76721 55.6899 5.41076 54.2414 2.98529 52.9265C1.29979 52.0577 0.134401 50.2422 0.146266 48.3394V19.6518C0.12859 17.7854 1.23684 15.9873 2.87996 15.1064C11.3242 10.3606 19.7669 5.61126 28.2097 0.863312Z" fill="#8CC84B"/>
<path d="M35.5764 20.7352C39.2592 20.4992 43.2019 20.5954 46.516 22.4022C49.0819 23.7868 50.5045 26.6927 50.5497 29.5316C50.4781 29.9145 50.0761 30.1257 49.709 30.0995C48.6405 30.098 47.5717 30.1139 46.5032 30.0922C46.0499 30.1096 45.7865 29.6934 45.7296 29.2943C45.4225 27.936 44.6787 26.5907 43.3949 25.9355C41.4242 24.9529 39.1391 25.0024 36.9902 25.0228C35.4214 25.1058 33.7345 25.2411 32.4054 26.1598C31.385 26.8557 31.0751 28.2606 31.4393 29.392C31.7826 30.2044 32.7243 30.4665 33.4947 30.7081C37.9331 31.8641 42.6363 31.7491 46.9899 33.2704C48.7923 33.8906 50.5556 35.0963 51.1725 36.9757C51.9795 39.4946 51.6258 42.5054 49.8262 44.5275C48.3669 46.1916 46.2414 47.0973 44.1215 47.5892C41.3014 48.2154 38.3747 48.2313 35.5108 47.9533C32.8177 47.6476 30.0153 46.943 27.9363 45.1156C26.1585 43.5784 25.2902 41.1832 25.3764 38.8715C25.397 38.4811 25.7874 38.2088 26.1629 38.2409C27.2389 38.2322 28.315 38.2293 29.391 38.2423C29.8208 38.2117 30.1395 38.5816 30.1615 38.985C30.3601 40.2792 30.8485 41.6375 31.9816 42.4048C34.1686 43.8099 36.9127 43.7137 39.4169 43.753C41.4915 43.6614 43.8203 43.6336 45.5133 42.2681C46.4066 41.4892 46.6712 40.1861 46.4298 39.0651C46.1683 38.1186 45.1741 37.6776 44.3203 37.3892C39.9389 36.0089 35.1831 36.5098 30.8441 34.9489C29.0826 34.329 27.3791 33.1568 26.7024 31.3546C25.7581 28.8038 26.1907 25.6488 28.1789 23.6949C30.1174 21.7514 32.9158 21.0029 35.5764 20.735V20.7352Z" fill="#8CC84B"/>
</svg>
