<svg width="197" height="68" viewBox="0 0 197 68" fill="none" xmlns="http://www.w3.org/2000/svg">
<rect x="128" width="68.7907" height="68" rx="5" fill="#007ACC"/>
<path d="M144.317 34.5131V37.2518H153.054V62.1193H159.254V37.2518H167.991V34.5635C167.991 33.0513 167.991 31.8247 167.924 31.7911C167.924 31.7407 162.598 31.7239 156.129 31.7239L144.367 31.7743V34.5299L144.317 34.5131V34.5131ZM183.584 31.7071C185.298 32.1103 186.608 32.8832 187.785 34.1098C188.406 34.7819 189.33 35.9581 189.398 36.2605C189.398 36.3613 186.491 38.3272 184.726 39.4193C184.659 39.4698 184.39 39.1841 184.122 38.7473C183.248 37.5039 182.357 36.9662 180.963 36.8654C178.946 36.731 177.602 37.7895 177.602 39.5538C177.602 40.0914 177.703 40.3939 177.905 40.8307C178.358 41.7549 179.199 42.3093 181.803 43.4519C186.608 45.5186 188.692 46.8796 189.952 48.8287C191.38 51.013 191.699 54.4406 190.742 57.0114C189.666 59.8174 187.045 61.716 183.298 62.3377C182.122 62.5393 179.434 62.5057 178.174 62.2873C175.485 61.7832 172.914 60.4391 171.335 58.7084C170.713 58.0363 169.52 56.2385 169.588 56.1209L170.226 55.7176L172.746 54.2558L174.645 53.1469L175.082 53.7349C175.636 54.6087 176.88 55.7848 177.602 56.1881C179.787 57.3138 182.71 57.1626 184.155 55.852C184.777 55.2807 185.046 54.6759 185.046 53.8357C185.046 53.0628 184.928 52.71 184.542 52.1219C184.004 51.3826 182.929 50.7777 179.904 49.4335C176.426 47.9549 174.948 47.014 173.57 45.569C172.78 44.6953 172.058 43.3343 171.721 42.2085C171.469 41.234 171.385 38.8481 171.621 37.8903C172.343 34.5299 174.88 32.1775 178.51 31.5055C179.686 31.2702 182.458 31.371 183.618 31.6735L183.584 31.7071V31.7071Z" fill="white"/>
<path d="M102.216 36.752H96.648V42.192H92.52V36.752H86.984V32.848H92.52V27.408H96.648V32.848H102.216V36.752Z" fill="white" fill-opacity="0.5"/>
<path d="M28.2096 0.72232C29.8953 -0.238602 32.091 -0.242942 33.7753 0.72232C42.2488 5.49052 50.725 10.2512 59.197 15.0223C60.7905 15.9162 61.8564 17.6823 61.8402 19.5108V48.1982C61.852 50.1024 60.6808 51.9107 58.9997 52.7843C50.554 57.5262 42.1127 62.2739 33.6685 67.0158C31.9479 67.9956 29.7082 67.9201 28.0413 66.8601C25.5093 65.3983 22.973 63.9438 20.4407 62.4835C19.9233 62.1763 19.34 61.9317 18.9746 61.4321C19.2976 60.9986 19.8751 60.9445 20.3443 60.7552C21.4013 60.4206 22.372 59.8833 23.3429 59.362C23.5885 59.1946 23.8882 59.2588 24.1236 59.4085C26.2887 60.6448 28.4348 61.917 30.6072 63.1415C31.0707 63.408 31.5399 63.0542 31.9361 62.8343C40.2238 58.1696 48.5218 53.5224 56.8081 48.8562C57.1151 48.7091 57.2849 48.3846 57.2599 48.0496C57.2658 38.5863 57.2614 29.1213 57.2628 19.6579C57.298 19.2779 57.0771 18.9285 56.7321 18.773C48.3157 14.0527 39.9037 9.32529 31.4888 4.60387C31.343 4.50405 31.1703 4.45049 30.9934 4.45024C30.8165 4.44998 30.6436 4.50303 30.4975 4.60242C22.0826 9.32529 13.6721 14.0571 5.25718 18.7771C4.91335 18.9328 4.6826 19.2764 4.72352 19.6579C4.72497 29.1213 4.72352 38.5863 4.72352 48.0511C4.70892 48.2145 4.74497 48.3784 4.82679 48.5208C4.90861 48.6632 5.03228 48.7773 5.18115 48.8475C7.42671 50.1157 9.67517 51.3749 11.9222 52.6387C13.1881 53.3172 14.7423 53.7204 16.137 53.2005C17.3678 52.7609 18.2305 51.5101 18.207 50.2087C18.2186 40.8006 18.2012 31.3911 18.2157 21.9844C18.185 21.5667 18.5828 21.2217 18.9906 21.261C20.0695 21.2537 21.1499 21.2465 22.2289 21.2639C22.6792 21.2537 22.9892 21.7035 22.9335 22.1242C22.9291 31.5919 22.9451 41.0598 22.9262 50.5275C22.9291 53.0508 21.8882 55.7963 19.5446 57.0309C16.6574 58.5204 13.0888 58.2045 10.2364 56.7763C7.76715 55.5489 5.41069 54.1004 2.98523 52.7855C1.29973 51.9167 0.13434 50.1012 0.146204 48.1984V19.5108C0.128529 17.6444 1.23678 15.8463 2.8799 14.9654C11.3241 10.2197 19.7669 5.47027 28.2096 0.72232Z" fill="#8CC84B"/>
<path d="M35.5764 20.5942C39.2592 20.3582 43.2019 20.4544 46.516 22.2612C49.0819 23.6458 50.5045 26.5517 50.5497 29.3906C50.4781 29.7735 50.0761 29.9848 49.7091 29.9585C48.6405 29.957 47.5717 29.9729 46.5032 29.9512C46.0499 29.9686 45.7865 29.5524 45.7296 29.1533C45.4225 27.795 44.6787 26.4497 43.3949 25.7946C41.4242 24.8119 39.1391 24.8614 36.9902 24.8819C35.4214 24.9648 33.7345 25.1001 32.4054 26.0188C31.385 26.7147 31.0751 28.1196 31.4393 29.251C31.7826 30.0634 32.7243 30.3255 33.4947 30.5671C37.9331 31.7231 42.6363 31.6081 46.9899 33.1294C48.7923 33.7496 50.5556 34.9553 51.1725 36.8347C51.9795 39.3536 51.6258 42.3644 49.8262 44.3865C48.3669 46.0506 46.2414 46.9563 44.1215 47.4482C41.3014 48.0744 38.3747 48.0904 35.5108 47.8123C32.8177 47.5066 30.0153 46.802 27.9363 44.9747C26.1585 43.4374 25.2902 41.0422 25.3764 38.7305C25.397 38.3401 25.7874 38.0678 26.1629 38.0999C27.2389 38.0912 28.315 38.0883 29.391 38.1013C29.8208 38.0707 30.1395 38.4406 30.1615 38.844C30.3601 40.1382 30.8485 41.4965 31.9816 42.2638C34.1686 43.6689 36.9127 43.5727 39.4169 43.612C41.4915 43.5204 43.8203 43.4926 45.5133 42.1271C46.4066 41.3482 46.6712 40.0451 46.4298 38.9241C46.1683 37.9776 45.1741 37.5366 44.3203 37.2482C39.9389 35.868 35.1831 36.3688 30.8441 34.8079C29.0826 34.188 27.3791 33.0158 26.7024 31.2136C25.7581 28.6629 26.1907 25.5078 28.1789 23.5539C30.1174 21.6104 32.9158 20.8619 35.5764 20.594V20.5942Z" fill="#8CC84B"/>
</svg>
