<svg width="340" height="68" viewBox="0 0 340 68" fill="none" xmlns="http://www.w3.org/2000/svg">
<path d="M204.354 34.0078C204.354 28.9494 198.019 24.1556 188.308 21.1829C190.549 11.284 189.553 3.40856 185.164 0.887159C184.153 0.295719 182.97 0.015564 181.678 0.015564V3.48638C182.394 3.48638 182.97 3.62646 183.452 3.89105C185.569 5.10506 186.487 9.72763 185.771 15.6732C185.6 17.1362 185.32 18.677 184.977 20.249C181.927 19.5019 178.596 18.9261 175.095 18.5525C172.994 15.6732 170.815 13.0584 168.62 10.7704C173.694 6.05447 178.456 3.47082 181.694 3.47082V0C177.414 0 171.811 3.05058 166.146 8.34241C160.481 3.08171 154.878 0.062257 150.598 0.062257V3.53307C153.82 3.53307 158.598 6.10117 163.671 10.786C161.492 13.0739 159.313 15.6732 157.244 18.5525C153.726 18.9261 150.396 19.5019 147.345 20.2646C146.987 18.7082 146.723 17.1984 146.536 15.751C145.804 9.80545 146.707 5.18288 148.808 3.95331C149.275 3.67315 149.882 3.54864 150.598 3.54864V0.077821C149.291 0.077821 148.108 0.357976 147.081 0.949416C142.707 3.47082 141.727 11.3307 143.984 21.1984C134.303 24.1868 128 28.965 128 34.0078C128 39.0661 134.334 43.8599 144.046 46.8327C141.805 56.7315 142.801 64.607 147.19 67.1284C148.201 67.7198 149.384 68 150.691 68C154.971 68 160.574 64.9494 166.239 59.6576C171.904 64.9183 177.507 67.9377 181.787 67.9377C183.094 67.9377 184.277 67.6576 185.304 67.0661C189.677 64.5447 190.658 56.6848 188.401 46.8171C198.051 43.8444 204.354 39.0506 204.354 34.0078V34.0078ZM184.09 23.6265C183.514 25.6342 182.798 27.7043 181.989 29.7743C181.351 28.5292 180.682 27.284 179.95 26.0389C179.234 24.7938 178.472 23.5798 177.709 22.3969C179.919 22.7237 182.051 23.1284 184.09 23.6265ZM176.962 40.2023C175.748 42.3035 174.503 44.2957 173.211 46.1479C170.893 46.3502 168.542 46.4591 166.177 46.4591C163.827 46.4591 161.477 46.3502 159.173 46.1634C157.882 44.3113 156.621 42.3346 155.407 40.249C154.224 38.2101 153.15 36.1401 152.17 34.0545C153.135 31.9689 154.224 29.8833 155.391 27.8444C156.605 25.7432 157.85 23.751 159.142 21.8988C161.461 21.6965 163.811 21.5875 166.177 21.5875C168.527 21.5875 170.877 21.6965 173.18 21.8833C174.472 23.7354 175.733 25.7121 176.947 27.7977C178.13 29.8366 179.203 31.9066 180.184 33.9922C179.203 36.0778 178.129 38.1634 176.962 40.2023ZM181.989 38.179C182.83 40.2646 183.546 42.3502 184.137 44.3735C182.098 44.8716 179.95 45.2918 177.725 45.6187C178.487 44.4202 179.25 43.1907 179.966 41.93C180.682 40.6848 181.351 39.4241 181.989 38.179ZM166.208 54.786C164.761 53.2918 163.313 51.6265 161.881 49.8054C163.282 49.8677 164.714 49.9144 166.161 49.9144C167.624 49.9144 169.072 49.8833 170.488 49.8054C169.087 51.6265 167.64 53.2918 166.208 54.786ZM154.629 45.6187C152.419 45.2918 150.287 44.8872 148.248 44.3891C148.824 42.3813 149.54 40.3113 150.349 38.2412C150.987 39.4864 151.656 40.7315 152.388 41.9767C153.119 43.2218 153.866 44.4358 154.629 45.6187ZM166.13 13.2296C167.578 14.7237 169.025 16.3891 170.457 18.2101C169.056 18.1479 167.624 18.1012 166.177 18.1012C164.714 18.1012 163.267 18.1323 161.85 18.2101C163.251 16.3891 164.698 14.7237 166.13 13.2296ZM154.613 22.3969C153.851 23.5953 153.088 24.8249 152.372 26.0856C151.656 27.3307 150.987 28.5759 150.349 29.821C149.509 27.7354 148.793 25.6498 148.201 23.6265C150.24 23.144 152.388 22.7237 154.613 22.3969V22.3969ZM140.528 41.8833C135.019 39.5331 131.455 36.4514 131.455 34.0078C131.455 31.5642 135.019 28.4669 140.528 26.1323C141.867 25.5564 143.33 25.0428 144.84 24.5603C145.727 27.6109 146.894 30.786 148.341 34.0389C146.909 37.2763 145.758 40.4358 144.886 43.4708C143.345 42.9883 141.882 42.4591 140.528 41.8833ZM148.902 64.1245C146.785 62.9105 145.867 58.2879 146.583 52.3424C146.754 50.8794 147.034 49.3385 147.376 47.7665C150.427 48.5136 153.757 49.0895 157.259 49.463C159.36 52.3424 161.539 54.9572 163.733 57.2451C158.66 61.9611 153.897 64.5447 150.66 64.5447C149.96 64.5292 149.368 64.3891 148.902 64.1245V64.1245ZM185.818 52.2646C186.549 58.2101 185.647 62.8327 183.546 64.0623C183.079 64.3424 182.472 64.4669 181.756 64.4669C178.534 64.4669 173.756 61.8988 168.683 57.214C170.861 54.9261 173.04 52.3268 175.11 49.4475C178.628 49.0739 181.958 48.4981 185.008 47.7354C185.366 49.3074 185.647 50.8171 185.818 52.2646V52.2646ZM191.81 41.8833C190.471 42.4591 189.008 42.9728 187.499 43.4553C186.612 40.4047 185.444 37.2296 183.997 33.9767C185.429 30.7393 186.58 27.5798 187.452 24.5447C188.993 25.0272 190.456 25.5564 191.825 26.1323C197.335 28.4825 200.899 31.5642 200.899 34.0078C200.883 36.4514 197.319 39.5486 191.81 41.8833V41.8833Z" fill="#61DAFB"/>
<path d="M166.161 41.1207C170.089 41.1207 173.274 37.9362 173.274 34.0079C173.274 30.0795 170.089 26.895 166.161 26.895C162.233 26.895 159.049 30.0795 159.049 34.0079C159.049 37.9362 162.233 41.1207 166.161 41.1207Z" fill="#61DAFB"/>
<rect x="271" width="68.7907" height="68" rx="5" fill="#007ACC"/>
<path d="M287.317 34.5131V37.2518H296.054V62.1193H302.254V37.2518H310.991V34.5635C310.991 33.0513 310.991 31.8247 310.924 31.7911C310.924 31.7407 305.598 31.7239 299.129 31.7239L287.367 31.7743V34.5299L287.317 34.5131V34.5131ZM326.584 31.7071C328.298 32.1103 329.608 32.8832 330.785 34.1098C331.406 34.7819 332.33 35.9581 332.398 36.2605C332.398 36.3613 329.491 38.3272 327.726 39.4193C327.659 39.4698 327.39 39.1841 327.122 38.7473C326.248 37.5039 325.357 36.9662 323.963 36.8654C321.946 36.731 320.602 37.7895 320.602 39.5538C320.602 40.0914 320.703 40.3939 320.905 40.8307C321.358 41.7549 322.199 42.3093 324.803 43.4519C329.608 45.5186 331.692 46.8796 332.952 48.8287C334.38 51.013 334.699 54.4406 333.742 57.0114C332.666 59.8174 330.045 61.716 326.298 62.3377C325.122 62.5393 322.434 62.5057 321.174 62.2873C318.485 61.7832 315.914 60.4391 314.335 58.7084C313.713 58.0363 312.52 56.2385 312.588 56.1209L313.226 55.7176L315.746 54.2558L317.645 53.1469L318.082 53.7349C318.636 54.6087 319.88 55.7848 320.602 56.1881C322.787 57.3138 325.71 57.1626 327.155 55.852C327.777 55.2807 328.046 54.6759 328.046 53.8357C328.046 53.0628 327.928 52.71 327.542 52.1219C327.004 51.3826 325.929 50.7777 322.904 49.4335C319.426 47.9549 317.948 47.014 316.57 45.569C315.78 44.6953 315.058 43.3343 314.721 42.2085C314.469 41.234 314.385 38.8481 314.621 37.8903C315.343 34.5299 317.88 32.1775 321.51 31.5055C322.686 31.2702 325.458 31.371 326.618 31.6735L326.584 31.7071V31.7071Z" fill="white"/>
<path d="M245.216 36.752H239.648V42.192H235.52V36.752H229.984V32.848H235.52V27.408H239.648V32.848H245.216V36.752Z" fill="white" fill-opacity="0.5"/>
<path d="M102.216 36.752H96.648V42.192H92.52V36.752H86.984V32.848H92.52V27.408H96.648V32.848H102.216V36.752Z" fill="white" fill-opacity="0.5"/>
<path d="M28.2096 0.72232C29.8953 -0.238602 32.091 -0.242942 33.7753 0.72232C42.2488 5.49052 50.725 10.2512 59.197 15.0223C60.7905 15.9162 61.8564 17.6823 61.8402 19.5108V48.1982C61.852 50.1024 60.6808 51.9107 58.9997 52.7843C50.554 57.5262 42.1127 62.2739 33.6685 67.0158C31.9479 67.9956 29.7082 67.9201 28.0413 66.8601C25.5093 65.3983 22.973 63.9438 20.4407 62.4835C19.9233 62.1763 19.34 61.9317 18.9746 61.4321C19.2976 60.9986 19.8751 60.9445 20.3443 60.7552C21.4013 60.4206 22.372 59.8833 23.3429 59.362C23.5885 59.1946 23.8882 59.2588 24.1236 59.4085C26.2887 60.6448 28.4348 61.917 30.6072 63.1415C31.0707 63.408 31.5399 63.0542 31.9361 62.8343C40.2238 58.1696 48.5218 53.5224 56.8081 48.8562C57.1151 48.7091 57.2849 48.3846 57.2599 48.0496C57.2658 38.5863 57.2614 29.1213 57.2628 19.6579C57.298 19.2779 57.0771 18.9285 56.7321 18.773C48.3157 14.0527 39.9037 9.32529 31.4888 4.60387C31.343 4.50405 31.1703 4.45049 30.9934 4.45024C30.8165 4.44998 30.6436 4.50303 30.4975 4.60242C22.0826 9.32529 13.6721 14.0571 5.25718 18.7771C4.91335 18.9328 4.6826 19.2764 4.72352 19.6579C4.72497 29.1213 4.72352 38.5863 4.72352 48.0511C4.70892 48.2145 4.74497 48.3784 4.82679 48.5208C4.90861 48.6632 5.03228 48.7773 5.18115 48.8475C7.42671 50.1157 9.67517 51.3749 11.9222 52.6387C13.1881 53.3172 14.7423 53.7204 16.137 53.2005C17.3678 52.7609 18.2305 51.5101 18.207 50.2087C18.2186 40.8006 18.2012 31.3911 18.2157 21.9844C18.185 21.5667 18.5828 21.2217 18.9906 21.261C20.0695 21.2537 21.1499 21.2465 22.2289 21.2639C22.6792 21.2537 22.9892 21.7035 22.9335 22.1242C22.9291 31.5919 22.9451 41.0598 22.9262 50.5275C22.9291 53.0508 21.8882 55.7963 19.5446 57.0309C16.6574 58.5204 13.0888 58.2045 10.2364 56.7763C7.76715 55.5489 5.41069 54.1004 2.98523 52.7855C1.29973 51.9167 0.13434 50.1012 0.146204 48.1984V19.5108C0.128529 17.6444 1.23678 15.8463 2.8799 14.9654C11.3241 10.2197 19.7669 5.47027 28.2096 0.72232Z" fill="#8CC84B"/>
<path d="M35.5764 20.5942C39.2592 20.3582 43.2019 20.4544 46.516 22.2612C49.0819 23.6458 50.5045 26.5517 50.5497 29.3906C50.4781 29.7735 50.0761 29.9848 49.7091 29.9585C48.6405 29.957 47.5717 29.9729 46.5032 29.9512C46.0499 29.9686 45.7865 29.5524 45.7296 29.1533C45.4225 27.795 44.6787 26.4497 43.3949 25.7946C41.4242 24.8119 39.1391 24.8614 36.9902 24.8819C35.4214 24.9648 33.7345 25.1001 32.4054 26.0188C31.385 26.7147 31.0751 28.1196 31.4393 29.251C31.7826 30.0634 32.7243 30.3255 33.4947 30.5671C37.9331 31.7231 42.6363 31.6081 46.9899 33.1294C48.7923 33.7496 50.5556 34.9553 51.1725 36.8347C51.9795 39.3536 51.6258 42.3644 49.8262 44.3865C48.3669 46.0506 46.2414 46.9563 44.1215 47.4482C41.3014 48.0744 38.3747 48.0904 35.5108 47.8123C32.8177 47.5066 30.0153 46.802 27.9363 44.9747C26.1585 43.4374 25.2902 41.0422 25.3764 38.7305C25.397 38.3401 25.7874 38.0678 26.1629 38.0999C27.2389 38.0912 28.315 38.0883 29.391 38.1013C29.8208 38.0707 30.1395 38.4406 30.1615 38.844C30.3601 40.1382 30.8485 41.4965 31.9816 42.2638C34.1686 43.6689 36.9127 43.5727 39.4169 43.612C41.4915 43.5204 43.8203 43.4926 45.5133 42.1271C46.4066 41.3482 46.6712 40.0451 46.4298 38.9241C46.1683 37.9776 45.1741 37.5366 44.3203 37.2482C39.9389 35.868 35.1831 36.3688 30.8441 34.8079C29.0826 34.188 27.3791 33.0158 26.7024 31.2136C25.7581 28.6629 26.1907 25.5078 28.1789 23.5539C30.1174 21.6104 32.9158 20.8619 35.5764 20.594V20.5942Z" fill="#8CC84B"/>
</svg>
