<svg width="77" height="68" viewBox="0 0 77 68" fill="none" xmlns="http://www.w3.org/2000/svg">
<path d="M76.3537 34.0078C76.3537 28.9494 70.0194 24.1556 60.3079 21.1829C62.549 11.284 61.553 3.40856 57.1641 0.887159C56.1525 0.295719 54.9697 0.015564 53.6779 0.015564V3.48638C54.3938 3.48638 54.9697 3.62646 55.4522 3.89105C57.5688 5.10506 58.487 9.72763 57.7711 15.6732C57.5999 17.1362 57.3198 18.677 56.9774 20.249C53.9269 19.5019 50.5964 18.9261 47.0946 18.5525C44.9936 15.6732 42.8147 13.0584 40.6203 10.7704C45.694 6.05447 50.4563 3.47082 53.6935 3.47082V0C49.4136 0 43.8108 3.05058 38.1457 8.34241C32.4807 3.08171 26.8779 0.062257 22.598 0.062257V3.53307C25.8196 3.53307 30.5975 6.10117 35.6712 10.786C33.4923 13.0739 31.3134 15.6732 29.2435 18.5525C25.7262 18.9261 22.3956 19.5019 19.3452 20.2646C18.9873 18.7082 18.7227 17.1984 18.5359 15.751C17.8045 9.80545 18.7071 5.18288 20.8082 3.95331C21.2751 3.67315 21.882 3.54864 22.598 3.54864V0.077821C21.2906 0.077821 20.1078 0.357976 19.0806 0.949416C14.7073 3.47082 13.7269 11.3307 15.9835 21.1984C6.30315 24.1868 0 28.965 0 34.0078C0 39.0661 6.33428 43.8599 16.0458 46.8327C13.8047 56.7315 14.8007 64.607 19.1896 67.1284C20.2012 67.7198 21.384 68 22.6913 68C26.9713 68 32.5741 64.9494 38.2391 59.6576C43.9042 64.9183 49.507 67.9377 53.7869 67.9377C55.0942 67.9377 56.277 67.6576 57.3042 67.0661C61.6775 64.5447 62.658 56.6848 60.4013 46.8171C70.0506 43.8444 76.3537 39.0506 76.3537 34.0078ZM56.0903 23.6265C55.5144 25.6342 54.7985 27.7043 53.9892 29.7743C53.3511 28.5292 52.6819 27.284 51.9504 26.0389C51.2345 24.7938 50.4719 23.5798 49.7093 22.3969C51.9193 22.7237 54.0515 23.1284 56.0903 23.6265ZM48.9622 40.2023C47.7483 42.3035 46.5032 44.2957 45.2115 46.1479C42.8926 46.3502 40.5425 46.4591 38.1769 46.4591C35.8268 46.4591 33.4767 46.3502 31.1734 46.1634C29.8816 44.3113 28.621 42.3346 27.407 40.249C26.2242 38.2101 25.1503 36.1401 24.1699 34.0545C25.1348 31.9689 26.2242 29.8833 27.3915 27.8444C28.6054 25.7432 29.8505 23.751 31.1422 21.8988C33.4612 21.6965 35.8112 21.5875 38.1769 21.5875C40.5269 21.5875 42.877 21.6965 45.1804 21.8833C46.4721 23.7354 47.7327 25.7121 48.9467 27.7977C50.1295 29.8366 51.2034 31.9066 52.1839 33.9922C51.2034 36.0778 50.1295 38.1634 48.9622 40.2023ZM53.9892 38.179C54.8296 40.2646 55.5455 42.3502 56.1369 44.3735C54.0982 44.8716 51.9504 45.2918 49.7249 45.6187C50.4875 44.4202 51.2501 43.1907 51.966 41.93C52.6819 40.6848 53.3511 39.4241 53.9892 38.179ZM38.208 54.786C36.7606 53.2918 35.3132 51.6265 33.8814 49.8054C35.2821 49.8677 36.7139 49.9144 38.1613 49.9144C39.6242 49.9144 41.0716 49.8833 42.4879 49.8054C41.0872 51.6265 39.6398 53.2918 38.208 54.786ZM26.6289 45.6187C24.4189 45.2918 22.2867 44.8872 20.2479 44.3891C20.8237 42.3813 21.5397 40.3113 22.3489 38.2412C22.987 39.4864 23.6563 40.7315 24.3877 41.9767C25.1192 43.2218 25.8663 44.4358 26.6289 45.6187ZM38.1302 13.2296C39.5776 14.7237 41.0249 16.3891 42.4568 18.2101C41.0561 18.1479 39.6242 18.1012 38.1769 18.1012C36.7139 18.1012 35.2665 18.1323 33.8503 18.2101C35.251 16.3891 36.6983 14.7237 38.1302 13.2296ZM26.6133 22.3969C25.8507 23.5953 25.0881 24.8249 24.3722 26.0856C23.6563 27.3307 22.987 28.5759 22.3489 29.821C21.5085 27.7354 20.7926 25.6498 20.2012 23.6265C22.24 23.144 24.3877 22.7237 26.6133 22.3969ZM12.5285 41.8833C7.01907 39.5331 3.45506 36.4514 3.45506 34.0078C3.45506 31.5642 7.01907 28.4669 12.5285 26.1323C13.8669 25.5564 15.3299 25.0428 16.8395 24.5603C17.7266 27.6109 18.8939 30.786 20.3413 34.0389C18.9095 37.2763 17.7578 40.4358 16.8862 43.4708C15.3455 42.9883 13.8825 42.4591 12.5285 41.8833ZM20.9016 64.1245C18.7849 62.9105 17.8667 58.2879 18.5826 52.3424C18.7538 50.8794 19.034 49.3385 19.3764 47.7665C22.4268 48.5136 25.7573 49.0895 29.2591 49.463C31.3601 52.3424 33.539 54.9572 35.7334 57.2451C30.6598 61.9611 25.8974 64.5447 22.6602 64.5447C21.9599 64.5292 21.3685 64.3891 20.9016 64.1245ZM57.8178 52.2646C58.5493 58.2101 57.6466 62.8327 55.5455 64.0623C55.0786 64.3424 54.4717 64.4669 53.7558 64.4669C50.5341 64.4669 45.7562 61.8988 40.6826 57.214C42.8614 54.9261 45.0403 52.3268 47.1102 49.4475C50.6275 49.0739 53.9581 48.4981 57.0085 47.7354C57.3664 49.3074 57.6466 50.8171 57.8178 52.2646ZM63.8097 41.8833C62.4712 42.4591 61.0083 42.9728 59.4986 43.4553C58.6115 40.4047 57.4443 37.2296 55.9969 33.9767C57.4287 30.7393 58.5804 27.5798 59.4519 24.5447C60.9927 25.0272 62.4557 25.5564 63.8252 26.1323C69.3346 28.4825 72.8987 31.5642 72.8987 34.0078C72.8831 36.4514 69.3191 39.5486 63.8097 41.8833Z" fill="#61DAFB"/>
<path d="M38.1613 41.1207C42.0894 41.1207 45.2738 37.9362 45.2738 34.0079C45.2738 30.0795 42.0894 26.895 38.1613 26.895C34.2332 26.895 31.0489 30.0795 31.0489 34.0079C31.0489 37.9362 34.2332 41.1207 38.1613 41.1207Z" fill="#61DAFB"/>
</svg>
