<svg width="72" height="68" viewBox="0 0 72 68" fill="none" xmlns="http://www.w3.org/2000/svg">
<path d="M49.6305 47.4907C52.2738 47.217 54.2791 44.9384 54.1879 42.2036C54.0969 39.4692 51.818 37.2814 49.0835 37.2814H48.9014C46.0754 37.3727 43.888 39.7425 43.9792 42.5682C44.0704 43.9356 44.6171 45.1205 45.4375 45.9409C42.3385 52.0483 37.5987 56.5146 30.4891 60.2519C25.6582 62.8042 20.645 63.7158 15.6319 63.0778C11.5301 62.5308 8.33988 60.708 6.3343 57.6996C3.41771 53.2332 3.14435 48.402 5.60543 43.571C7.33737 40.1071 10.0715 37.5548 11.8035 36.2787C11.4389 35.0937 10.8919 33.0884 10.6185 31.6301C-2.59819 41.2011 -1.23083 54.1448 2.77977 60.2519C5.78758 64.8098 11.8947 67.6354 18.6397 67.6354C20.4626 67.6354 22.2855 67.453 24.1086 66.9975C35.7759 64.7186 44.6174 57.7908 49.6305 47.4907V47.4907ZM65.6729 36.1877C58.7455 28.075 48.5368 23.6086 36.8696 23.6086H35.4113C34.5909 21.9679 32.859 20.8739 30.9449 20.8739H30.7625C27.9371 20.9651 25.7496 23.335 25.8406 26.1609C25.9318 28.8954 28.2105 31.0831 30.9449 31.0831H31.127C33.1323 30.9919 34.8643 29.7158 35.5934 27.9838H37.2342C44.1616 27.9838 50.7243 29.9891 56.6492 33.9088C61.2065 36.9169 64.488 40.8365 66.3109 45.5763C67.8604 49.4047 67.7692 53.142 66.1284 56.3325C63.5764 61.1635 59.2925 63.807 53.6411 63.807C49.9951 63.807 46.5315 62.713 44.7084 61.8926C43.7058 62.8042 41.8827 64.2625 40.6065 65.1743C44.5262 66.9972 48.5368 68 52.365 68C61.1153 68 67.587 63.1688 70.0481 58.3378C72.6913 53.0508 72.5089 43.9356 65.6729 36.1877V36.1877ZM19.3689 49.0399C19.4601 51.7746 21.7388 53.9621 24.4732 53.9621H24.6556C27.4813 53.8711 29.6687 51.501 29.5775 48.6753C29.4866 45.9406 27.2077 43.7531 24.4732 43.7531H24.2911C24.1086 43.7531 23.835 43.7531 23.6531 43.8441C19.9159 37.6457 18.3664 30.9007 18.9134 23.6084C19.2777 18.1392 21.1008 13.3992 24.2911 9.4795C26.9343 6.10683 32.0386 4.46611 35.5025 4.37517C45.1641 4.19275 49.2657 16.2248 49.5393 21.0561C50.7243 21.3294 52.7296 21.9676 54.0969 22.4234C53.0029 7.6569 43.888 0 35.1379 0C26.9343 0 19.3689 5.92497 16.3608 14.6756C12.1681 26.3431 14.9025 37.5548 20.0068 46.3967C19.5513 47.0346 19.2777 48.0374 19.3689 49.0402V49.0399Z" fill="#764ABC"/>
</svg>
