<svg width="48" height="43" viewBox="0 0 48 43" fill="none" xmlns="http://www.w3.org/2000/svg">
<path d="M2.00024 38.1208V24.5755H15.5456" stroke="white" stroke-width="4" stroke-linecap="round" stroke-linejoin="round"/>
<path d="M2.00024 24.5755L12.4753 34.4184C14.9016 36.846 17.9033 38.6193 21.2003 39.573C24.4973 40.5266 27.9822 40.6295 31.3298 39.8721C34.6773 39.1147 37.7784 37.5216 40.3438 35.2415C42.9091 32.9614 44.8551 30.0686 46 26.8331" stroke="white" stroke-width="4" stroke-linecap="round" stroke-linejoin="round"/>
<path d="M45.9998 4.25221V17.7975H32.4544" stroke="white" stroke-width="4" stroke-linecap="round" stroke-linejoin="round"/>
<path d="M45.9998 17.7975L35.5247 7.9546C33.0984 5.52708 30.0967 3.75375 26.7997 2.80009C23.5027 1.84642 20.0178 1.7435 16.6703 2.50093C13.3227 3.25835 10.2216 4.85144 7.65624 7.13154C5.09091 9.41164 3.14497 12.3044 2.00001 15.54" stroke="white" stroke-width="4" stroke-linecap="round" stroke-linejoin="round"/>
</svg>
