<svg width="307" height="80" viewBox="0 0 307 80" fill="none" xmlns="http://www.w3.org/2000/svg">
<g opacity="0.31">
<path d="M33.0228 0.853487C35.0064 -0.28193 37.5901 -0.287059 39.572 0.853487C49.5429 6.48755 59.5169 12.1128 69.4861 17.7503C71.3611 18.8065 72.6154 20.8932 72.5963 23.0538V56.9505C72.6103 59.2005 71.2321 61.3372 69.2539 62.3695C59.3158 67.9725 49.3828 73.5823 39.4464 79.1853C37.4217 80.343 34.7862 80.2538 32.8248 79.0013C29.8453 77.2741 26.8608 75.5554 23.881 73.8299C23.2722 73.4669 22.5858 73.178 22.1558 72.5876C22.5359 72.0754 23.2155 72.0115 23.7676 71.7879C25.0113 71.3924 26.1536 70.7576 27.2961 70.1416C27.585 69.9438 27.9378 70.0196 28.2147 70.1966C30.7625 71.6574 33.2878 73.1606 35.8441 74.6075C36.3894 74.9223 36.9416 74.5043 37.4078 74.2445C47.1601 68.7326 56.9244 63.2416 66.675 57.7281C67.0363 57.5543 67.236 57.1708 67.2067 56.775C67.2135 45.5932 67.2084 34.4094 67.2101 23.2276C67.2514 22.7786 66.9916 22.3657 66.5856 22.182C56.6819 16.6046 46.7834 11.0187 36.8815 5.43989C36.7099 5.32195 36.5067 5.25866 36.2985 5.25836C36.0903 5.25805 35.8869 5.32074 35.715 5.43818C25.8131 11.0187 15.9163 16.6097 6.0144 22.1868C5.6098 22.3709 5.33827 22.7769 5.38643 23.2276C5.38813 34.4094 5.38643 45.5932 5.38643 56.7767C5.36926 56.9698 5.41167 57.1635 5.50795 57.3318C5.60423 57.5001 5.74975 57.6348 5.92493 57.7178C8.5673 59.2162 11.2131 60.7041 13.8572 62.1974C15.3468 62.9991 17.1757 63.4755 18.8168 62.8612C20.2651 62.3418 21.2803 60.8639 21.2526 59.3262C21.2663 48.2096 21.2458 37.0914 21.2629 25.9766C21.2267 25.4831 21.6948 25.0753 22.1746 25.1218C23.4443 25.1132 24.7156 25.1047 25.9852 25.1252C26.5152 25.1132 26.8799 25.6446 26.8143 26.1418C26.8092 37.3287 26.828 48.5159 26.8058 59.7029C26.8092 62.6843 25.5843 65.9284 22.8265 67.3872C19.4291 69.1472 15.2299 68.774 11.8735 67.0864C8.96791 65.6361 6.19504 63.9246 3.34097 62.3709C1.35762 61.3443 -0.013716 59.1991 0.000245233 56.9508V23.0538C-0.0205541 20.8485 1.28354 18.7238 3.21702 17.683C13.1534 12.0755 23.0881 6.46362 33.0228 0.853487Z" fill="black"/>
<path d="M41.6914 24.334C46.0251 24.0551 50.6645 24.1687 54.5642 26.3037C57.5835 27.9397 59.2574 31.3733 59.3107 34.7277C59.2264 35.1802 58.7534 35.4297 58.3215 35.3987C57.0641 35.397 55.8065 35.4158 54.5491 35.3901C54.0157 35.4107 53.7057 34.9189 53.6388 34.4473C53.2775 32.8424 52.4022 31.2528 50.8915 30.4786C48.5725 29.3176 45.8837 29.376 43.355 29.4002C41.509 29.4982 39.524 29.6581 37.96 30.7436C36.7594 31.5659 36.3947 33.2259 36.8232 34.5627C37.2272 35.5226 38.3353 35.8323 39.2419 36.1178C44.4645 37.4838 49.9989 37.3478 55.1218 39.1454C57.2427 39.8782 59.3176 41.3029 60.0435 43.5236C60.9932 46.4999 60.5769 50.0574 58.4594 52.4468C56.7421 54.413 54.2411 55.4832 51.7466 56.0644C48.4281 56.8044 44.9842 56.8232 41.6142 56.4947C38.4453 56.1334 35.1476 55.3008 32.7012 53.1417C30.6093 51.3253 29.5876 48.4952 29.689 45.7636C29.7132 45.3023 30.1725 44.9806 30.6144 45.0185C31.8806 45.0083 33.1468 45.0049 34.413 45.0203C34.9188 44.9841 35.2937 45.4211 35.3196 45.8978C35.5533 47.427 36.128 49.032 37.4614 49.9386C40.0348 51.5988 43.2639 51.4852 46.2105 51.5316C48.6518 51.4233 51.3921 51.3906 53.3843 49.777C54.4354 48.8567 54.7468 47.317 54.4628 45.9924C54.155 44.8741 52.9851 44.353 51.9805 44.0122C46.8248 42.3813 41.2287 42.9731 36.1228 41.1288C34.05 40.3962 32.0456 39.0112 31.2492 36.8817C30.138 33.8678 30.6472 30.1399 32.9867 27.8311C35.2678 25.5347 38.5606 24.6503 41.6914 24.3337V24.334Z" fill="black"/>
<path d="M194.833 40.0092C194.833 34.0581 187.38 28.4184 175.954 24.921C178.591 13.2753 177.419 4.01007 172.256 1.04372C171.065 0.347905 169.674 0.0183105 168.154 0.0183105V4.10163C168.996 4.10163 169.674 4.26642 170.241 4.57771C172.732 6.00595 173.812 11.4443 172.97 18.439C172.768 20.1602 172.439 21.973 172.036 23.8224C168.447 22.9435 164.528 22.266 160.409 21.8265C157.937 18.439 155.373 15.3628 152.791 12.6711C158.761 7.12291 164.364 4.08331 168.172 4.08331V0C163.137 0 156.545 3.58892 149.88 9.8146C143.215 3.62554 136.623 0.0732436 131.587 0.0732436V4.15656C135.378 4.15656 140.999 7.17784 146.968 12.6894C144.405 15.3811 141.841 18.439 139.406 21.8265C135.268 22.266 131.349 22.9435 127.76 23.8407C127.339 22.0096 127.028 20.2335 126.808 18.5306C125.948 11.5358 127.01 6.09751 129.482 4.65095C130.031 4.32136 130.745 4.17487 131.587 4.17487V0.0915541C130.049 0.0915541 128.658 0.421149 127.449 1.11696C122.304 4.08331 121.15 13.3303 123.805 24.9393C112.416 28.455 105 34.0764 105 40.0092C105 45.9602 112.453 51.5999 123.878 55.0973C121.242 66.743 122.414 76.0082 127.577 78.9746C128.767 79.6704 130.159 80 131.697 80C136.733 80 143.325 76.4111 149.99 70.1854C156.655 76.3745 163.247 79.9268 168.282 79.9268C169.82 79.9268 171.212 79.5972 172.42 78.9013C177.566 75.935 178.719 66.688 176.064 55.079C187.417 51.5816 194.833 45.9419 194.833 40.0092V40.0092ZM170.992 27.7958C170.315 30.1579 169.472 32.5933 168.52 35.0286C167.77 33.5637 166.982 32.0989 166.122 30.634C165.279 29.1691 164.382 27.7409 163.485 26.3493C166.085 26.7338 168.593 27.2099 170.992 27.7958ZM162.606 47.2969C161.178 49.7688 159.713 52.1126 158.193 54.2916C155.465 54.5296 152.7 54.6578 149.916 54.6578C147.152 54.6578 144.387 54.5296 141.677 54.3099C140.157 52.1309 138.674 49.8054 137.245 47.3518C135.854 44.9531 134.59 42.5177 133.437 40.0641C134.572 37.6104 135.854 35.1568 137.227 32.7581C138.655 30.2861 140.12 27.9423 141.64 25.7633C144.368 25.5253 147.133 25.3971 149.916 25.3971C152.681 25.3971 155.446 25.5253 158.156 25.745C159.676 27.924 161.159 30.2495 162.588 32.7031C163.979 35.1019 165.243 37.5372 166.396 39.9908C165.243 42.4445 163.979 44.8981 162.606 47.2969ZM168.52 44.9165C169.509 47.3701 170.351 49.8238 171.047 52.2042C168.648 52.7901 166.122 53.2845 163.503 53.669C164.4 52.2591 165.298 50.8125 166.14 49.3294C166.982 47.8645 167.77 46.3813 168.52 44.9165ZM149.953 64.4541C148.25 62.6963 146.547 60.737 144.863 58.5946C146.511 58.6679 148.195 58.7228 149.898 58.7228C151.619 58.7228 153.322 58.6862 154.989 58.5946C153.341 60.737 151.638 62.6963 149.953 64.4541ZM136.33 53.669C133.73 53.2845 131.221 52.8084 128.822 52.2225C129.5 49.8604 130.342 47.425 131.294 44.9897C132.045 46.4546 132.832 47.9194 133.693 49.3843C134.554 50.8492 135.433 52.2774 136.33 53.669ZM149.862 15.5642C151.564 17.322 153.267 19.2813 154.952 21.4237C153.304 21.3504 151.619 21.2955 149.916 21.2955C148.195 21.2955 146.492 21.3321 144.826 21.4237C146.474 19.2813 148.177 17.322 149.862 15.5642ZM136.312 26.3493C135.414 27.7592 134.517 29.2058 133.675 30.6889C132.832 32.1538 132.045 33.6187 131.294 35.0835C130.306 32.6299 129.463 30.1762 128.767 27.7958C131.166 27.2282 133.693 26.7338 136.312 26.3493V26.3493ZM119.74 49.2744C113.258 46.5095 109.065 42.884 109.065 40.0092C109.065 37.1344 113.258 33.4905 119.74 30.7439C121.315 30.0664 123.036 29.4621 124.812 28.8945C125.856 32.4834 127.229 36.2188 128.932 40.0458C127.248 43.8544 125.893 47.5715 124.867 51.1421C123.054 50.5745 121.333 49.9519 119.74 49.2744ZM129.591 75.4406C127.101 74.0124 126.021 68.574 126.863 61.5793C127.065 59.8581 127.394 58.0453 127.797 56.1959C131.386 57.0748 135.304 57.7523 139.424 58.1918C141.896 61.5793 144.46 64.6555 147.042 67.3472C141.072 72.8954 135.469 75.935 131.661 75.935C130.837 75.9167 130.141 75.7519 129.591 75.4406V75.4406ZM173.025 61.4877C173.885 68.4825 172.823 73.9208 170.351 75.3674C169.802 75.697 169.088 75.8434 168.246 75.8434C164.455 75.8434 158.834 72.8222 152.865 67.3106C155.428 64.6189 157.992 61.561 160.427 58.1735C164.565 57.734 168.484 57.0565 172.073 56.1593C172.494 58.0087 172.823 59.7848 173.025 61.4877V61.4877ZM180.074 49.2744C178.5 49.9519 176.778 50.5562 175.002 51.1238C173.959 47.5349 172.585 43.7995 170.882 39.9725C172.567 36.1639 173.922 32.4468 174.947 28.8762C176.76 29.4438 178.481 30.0664 180.093 30.7439C186.575 33.5088 190.768 37.1344 190.768 40.0092C190.75 42.884 186.556 46.5278 180.074 49.2744V49.2744Z" fill="black"/>
<path d="M149.898 48.3772C154.52 48.3772 158.266 44.6307 158.266 40.0092C158.266 35.3876 154.52 31.6411 149.898 31.6411C145.277 31.6411 141.53 35.3876 141.53 40.0092C141.53 44.6307 145.277 48.3772 149.898 48.3772Z" fill="black"/>
<rect x="227" width="80" height="80" rx="5" fill="black"/>
<path d="M244.54 40.14V43.4H254.94V73H262.32V43.4H272.72V40.2C272.72 38.4 272.72 36.94 272.64 36.9C272.64 36.84 266.3 36.82 258.6 36.82L244.6 36.88V40.16L244.54 40.14V40.14ZM291.28 36.8C293.32 37.28 294.88 38.2 296.28 39.66C297.02 40.46 298.12 41.86 298.2 42.22C298.2 42.34 294.74 44.68 292.64 45.98C292.56 46.04 292.24 45.7 291.92 45.18C290.88 43.7 289.82 43.06 288.16 42.94C285.76 42.78 284.16 44.04 284.16 46.14C284.16 46.78 284.28 47.14 284.52 47.66C285.06 48.76 286.06 49.42 289.16 50.78C294.88 53.24 297.36 54.86 298.86 57.18C300.56 59.78 300.94 63.86 299.8 66.92C298.52 70.26 295.4 72.52 290.94 73.26C289.54 73.5 286.34 73.46 284.84 73.2C281.64 72.6 278.58 71 276.7 68.94C275.96 68.14 274.54 66 274.62 65.86L275.38 65.38L278.38 63.64L280.64 62.32L281.16 63.02C281.82 64.06 283.3 65.46 284.16 65.94C286.76 67.28 290.24 67.1 291.96 65.54C292.7 64.86 293.02 64.14 293.02 63.14C293.02 62.22 292.88 61.8 292.42 61.1C291.78 60.22 290.5 59.5 286.9 57.9C282.76 56.14 281 55.02 279.36 53.3C278.42 52.26 277.56 50.64 277.16 49.3C276.86 48.14 276.76 45.3 277.04 44.16C277.9 40.16 280.92 37.36 285.24 36.56C286.64 36.28 289.94 36.4 291.32 36.76L291.28 36.8V36.8Z" fill="#223029"/>
</g>
</svg>
