<svg width="69" height="68" viewBox="0 0 69 68" fill="none" xmlns="http://www.w3.org/2000/svg">
<rect width="68.7907" height="68" rx="5" fill="#007ACC"/>
<path d="M16.3171 34.5129V37.2517H25.0543V62.1192H31.2544V37.2517H39.9916V34.5634C39.9916 33.0511 39.9916 31.8246 39.9244 31.791C39.9244 31.7406 34.5981 31.7238 28.1292 31.7238L16.3675 31.7742V34.5298L16.3171 34.5129V34.5129ZM55.5842 31.707C57.298 32.1102 58.6086 32.8831 59.7848 34.1097C60.4064 34.7818 61.3306 35.9579 61.3978 36.2604C61.3978 36.3612 58.491 38.3271 56.7267 39.4192C56.6595 39.4696 56.3907 39.184 56.1219 38.7471C55.2481 37.5038 54.3576 36.9661 52.963 36.8653C50.9467 36.7309 49.6025 37.7894 49.6025 39.5536C49.6025 40.0913 49.7034 40.3938 49.905 40.8306C50.3587 41.7548 51.1988 42.3092 53.8031 43.4518C58.6086 45.5185 60.6921 46.8795 61.9523 48.8285C63.3804 51.0128 63.6997 54.4405 62.742 57.0113C61.6666 59.8173 59.0455 61.7159 55.2985 62.3376C54.1224 62.5392 51.434 62.5056 50.1738 62.2872C47.4855 61.7831 44.9147 60.4389 43.3353 58.7083C42.7136 58.0362 41.5206 56.2384 41.5878 56.1207L42.2263 55.7175L44.7467 54.2557L46.6453 53.1467L47.0822 53.7348C47.6367 54.6085 48.88 55.7847 49.6025 56.188C51.7868 57.3137 54.7105 57.1625 56.1555 55.8519C56.7771 55.2806 57.046 54.6757 57.046 53.8356C57.046 53.0627 56.9284 52.7099 56.5419 52.1218C56.0042 51.3825 54.9289 50.7776 51.9045 49.4334C48.4264 47.9548 46.9478 47.0139 45.57 45.5689C44.7803 44.6952 44.0578 43.3342 43.7217 42.2084C43.4697 41.2339 43.3857 38.8479 43.6209 37.8902C44.3434 34.5298 46.8806 32.1774 50.5099 31.5053C51.686 31.2701 54.4584 31.3709 55.6178 31.6734L55.5842 31.707V31.707Z" fill="white"/>
</svg>
