<svg width="347" height="346" viewBox="0 0 347 346" fill="none" xmlns="http://www.w3.org/2000/svg">
<path d="M173.013 44.1877C147.534 44.1877 122.627 51.7432 101.442 65.8987C80.2564 80.0542 63.7445 100.174 53.994 123.714C44.2435 147.253 41.6924 173.156 46.6631 198.146C51.6339 223.135 63.9033 246.09 81.9198 264.106C99.9364 282.123 122.891 294.392 147.88 299.363C172.87 304.334 198.773 301.783 222.312 292.032C245.852 282.282 265.972 265.77 280.127 244.584C294.283 223.399 301.838 198.492 301.838 173.013C301.8 138.858 288.215 106.113 264.064 81.9624C239.913 57.8114 207.168 44.2263 173.013 44.1877ZM173.013 292.379C149.405 292.379 126.326 285.379 106.697 272.262C87.067 259.146 71.7675 240.504 62.7329 218.692C53.6984 196.881 51.3345 172.881 55.9403 149.726C60.5461 126.571 71.9146 105.302 88.6083 88.6082C105.302 71.9146 126.571 60.546 149.726 55.9402C172.881 51.3345 196.881 53.6983 218.693 62.7329C240.504 71.7674 259.146 87.0669 272.263 106.697C285.379 126.326 292.379 149.405 292.379 173.013C292.344 204.66 279.756 235 257.378 257.378C235 279.756 204.66 292.344 173.013 292.379Z" fill="#FF0657"/>
<path d="M173.013 44.1877C147.534 44.1877 122.627 51.7432 101.442 65.8987C80.2564 80.0542 63.7445 100.174 53.994 123.714C44.2435 147.253 41.6924 173.156 46.6631 198.146C51.6339 223.135 63.9033 246.09 81.9198 264.106C99.9364 282.123 122.891 294.392 147.88 299.363C172.87 304.334 198.773 301.783 222.312 292.032C245.852 282.282 265.972 265.77 280.127 244.584C294.283 223.399 301.838 198.492 301.838 173.013C301.8 138.858 288.215 106.113 264.064 81.9624C239.913 57.8114 207.168 44.2263 173.013 44.1877ZM173.013 292.379C149.405 292.379 126.326 285.379 106.697 272.262C87.067 259.146 71.7675 240.504 62.7329 218.692C53.6984 196.881 51.3345 172.881 55.9403 149.726C60.5461 126.571 71.9146 105.302 88.6083 88.6082C105.302 71.9146 126.571 60.546 149.726 55.9402C172.881 51.3345 196.881 53.6983 218.693 62.7329C240.504 71.7674 259.146 87.0669 272.263 106.697C285.379 126.326 292.379 149.405 292.379 173.013C292.344 204.66 279.756 235 257.378 257.378C235 279.756 204.66 292.344 173.013 292.379Z" fill="url(#paint0_linear)"/>
<path d="M340.635 188.171C344.108 183.878 346.002 178.523 346.002 173.002C346.002 167.48 344.108 162.125 340.635 157.832L332.884 148.157C331.398 146.3 330.381 144.113 329.919 141.78C329.457 139.448 329.562 137.038 330.228 134.755L333.687 122.888C335.206 117.582 334.882 111.917 332.769 106.818C330.656 101.72 326.877 97.4871 322.05 94.8113L311.22 88.8657C309.134 87.7233 307.354 86.0954 306.03 84.1198C304.706 82.1441 303.877 79.8787 303.613 77.515L302.262 65.2048C301.683 59.7107 299.236 54.5817 295.33 50.6753C291.424 46.7689 286.295 44.3221 280.801 43.7439L268.49 42.3926C266.127 42.1297 263.861 41.3013 261.885 39.9775C259.91 38.6538 258.282 36.8736 257.14 34.7876L251.194 23.9558C248.559 19.0887 244.331 15.2759 239.218 13.157C234.106 11.0381 228.42 10.7421 223.115 12.3186L211.25 15.7752C208.966 16.4389 206.556 16.5439 204.222 16.081C201.889 15.6182 199.701 14.6013 197.843 13.1158L188.168 5.36492C183.874 1.89366 178.52 0 172.998 0C167.477 0 162.123 1.89366 157.829 5.36492L148.154 13.1158C146.295 14.5981 144.108 15.613 141.776 16.0752C139.444 16.5375 137.035 16.4337 134.752 15.7725L122.885 12.3132C117.579 10.7931 111.914 11.1161 106.815 13.2295C101.716 15.343 97.4833 19.1221 94.8082 23.9504L88.8626 34.7795C87.7202 36.8656 86.0923 38.6459 84.1167 39.9701C82.141 41.2943 79.8756 42.1233 77.5119 42.3872L65.2018 43.7385C59.7076 44.3167 54.5786 46.7635 50.6722 50.6699C46.7658 54.5763 44.319 59.7053 43.7408 65.1994L42.3895 77.5096C42.1266 79.8732 41.2982 82.1387 39.9744 84.1145C38.6507 86.0903 36.8705 87.7181 34.7845 88.8603L23.9527 94.8059C19.0867 97.4417 15.2748 101.67 13.1561 106.783C11.0373 111.895 10.7405 117.58 12.3155 122.885L15.7775 134.747C16.4413 137.031 16.5462 139.442 16.0834 141.775C15.6205 144.108 14.6036 146.296 13.1182 148.154L5.36724 157.829C1.89456 162.122 0 167.477 0 172.999C0 178.521 1.89456 183.875 5.36724 188.168L13.1182 197.843C14.6039 199.7 15.6209 201.887 16.0832 204.22C16.5456 206.553 16.4398 208.962 15.7748 211.245L12.3155 223.112C10.7952 228.418 11.1176 234.083 13.23 239.182C15.3424 244.282 19.1202 248.515 23.9473 251.192L34.7764 257.137C36.8625 258.28 38.6428 259.908 39.967 261.883C41.2912 263.859 42.1202 266.124 42.3841 268.488L43.7354 280.798C44.3136 286.292 46.7604 291.421 50.6668 295.328C54.5732 299.234 59.7022 301.681 65.1963 302.259L77.5065 303.611C79.8701 303.873 82.1357 304.702 84.1114 306.026C86.0872 307.349 87.715 309.13 88.8572 311.215L94.8028 322.047C97.4375 326.914 101.666 330.727 106.779 332.846C111.891 334.965 117.577 335.261 122.882 333.685L134.744 330.223C137.028 329.561 139.438 329.457 141.771 329.92C144.104 330.382 146.292 331.398 148.151 332.882L157.826 340.633C162.119 344.105 167.474 346 172.996 346C178.518 346 183.872 344.105 188.165 340.633L197.84 332.882C199.697 331.397 201.885 330.38 204.217 329.918C206.55 329.455 208.959 329.561 211.242 330.225L223.109 333.685C228.414 335.259 234.099 334.962 239.211 332.844C244.323 330.725 248.551 326.913 251.186 322.047L257.132 311.218C258.274 309.132 259.902 307.352 261.878 306.028C263.853 304.703 266.119 303.874 268.482 303.611L280.792 302.259C286.287 301.681 291.416 299.234 295.322 295.328C299.228 291.421 301.675 286.292 302.253 280.798L303.605 268.488C303.868 266.124 304.696 263.859 306.02 261.883C307.344 259.907 309.124 258.28 311.21 257.137L322.042 251.192C326.907 248.556 330.719 244.327 332.838 239.215C334.957 234.103 335.254 228.417 333.679 223.112L330.217 211.251C329.553 208.966 329.448 206.556 329.911 204.223C330.374 201.889 331.391 199.701 332.876 197.843L340.635 188.171ZM325.501 191.936C323.067 194.979 321.4 198.564 320.642 202.387C319.884 206.21 320.056 210.16 321.144 213.902L324.609 225.763C325.569 229 325.388 232.469 324.095 235.588C322.802 238.707 320.476 241.287 317.507 242.895L306.672 248.841C303.252 250.715 300.334 253.387 298.165 256.628C295.996 259.87 294.641 263.587 294.213 267.464L292.862 279.774C292.507 283.126 291.013 286.255 288.63 288.638C286.246 291.022 283.117 292.516 279.765 292.871L267.453 294.222C263.576 294.651 259.86 296.007 256.619 298.176C253.378 300.345 250.707 303.263 248.832 306.683L242.886 317.515C241.277 320.482 238.698 322.807 235.58 324.1C232.462 325.393 228.994 325.576 225.758 324.617L213.893 321.155C210.152 320.065 206.203 319.892 202.38 320.649C198.557 321.407 194.973 323.074 191.93 325.509L182.255 333.26C179.635 335.381 176.366 336.537 172.996 336.537C169.625 336.537 166.357 335.381 163.737 333.26L154.062 325.509C151.018 323.075 147.433 321.408 143.61 320.65C139.787 319.891 135.838 320.064 132.095 321.153L120.237 324.615C116.999 325.572 113.532 325.389 110.414 324.096C107.295 322.803 104.715 320.479 103.105 317.512L97.1594 306.678C95.2848 303.258 92.6135 300.339 89.3716 298.171C86.1298 296.002 82.413 294.646 78.5361 294.219L66.226 292.868C62.874 292.513 59.7451 291.019 57.3616 288.636C54.9781 286.252 53.4843 283.123 53.1294 279.771L51.7782 267.458C51.3493 263.582 49.9929 259.866 47.8238 256.625C45.6546 253.384 42.7366 250.713 39.3167 248.838L28.4849 242.892C25.5397 241.26 23.2345 238.678 21.9452 235.567C20.6559 232.456 20.4585 229.001 21.3853 225.763L24.8472 213.899C25.9366 210.158 26.1098 206.209 25.352 202.386C24.5942 198.563 22.9278 194.979 20.4934 191.936L12.7371 182.26C10.6177 179.64 9.46146 176.372 9.46146 173.002C9.46146 169.631 10.6177 166.363 12.7371 163.743L20.488 154.067C22.9223 151.024 24.5888 147.439 25.347 143.616C26.1052 139.793 25.9329 135.844 24.8445 132.101L21.3853 120.24C20.4249 117.003 20.6064 113.534 21.8995 110.415C23.1926 107.296 25.5186 104.716 28.4876 103.108L39.3221 97.1625C42.7425 95.2879 45.6606 92.6166 47.8294 89.3747C49.9981 86.1329 51.3536 82.4161 51.7809 78.5392L53.1322 66.2291C53.4895 62.8757 54.9868 59.7464 57.374 57.3642C59.7611 54.982 62.8935 53.4911 66.2476 53.1406L78.5605 51.7894C82.4369 51.3605 86.1529 50.0041 89.3941 47.835C92.6353 45.6658 95.3063 42.7478 97.181 39.3279L103.127 28.4961C104.758 25.5548 107.337 23.2518 110.443 21.9614C113.55 20.671 117.001 20.469 120.237 21.3884L132.101 24.8503C135.842 25.9402 139.791 26.1136 143.614 25.3558C147.437 24.598 151.021 22.9313 154.064 20.4965L163.74 12.7402C166.36 10.6203 169.628 9.46377 172.998 9.46377C176.369 9.46377 179.637 10.6203 182.257 12.7402L191.933 20.4911C194.977 22.924 198.562 24.5896 202.384 25.3478C206.207 26.1059 210.156 25.9344 213.899 24.8476L225.76 21.3884C228.997 20.4316 232.465 20.6149 235.583 21.9076C238.701 23.2003 241.281 25.5242 242.892 28.4907L248.837 39.3252C250.712 42.7456 253.383 45.6637 256.625 47.8325C259.867 50.0012 263.584 51.3566 267.461 51.784L279.771 53.1352C283.123 53.4901 286.252 54.9839 288.635 57.3674C291.019 59.7509 292.513 62.8798 292.867 66.2318L294.219 78.5446C294.648 82.421 296.004 86.1371 298.173 89.3783C300.342 92.6195 303.26 95.2905 306.68 97.1652L317.512 103.111C320.457 104.743 322.763 107.325 324.053 110.436C325.342 113.546 325.54 117.002 324.614 120.24L321.152 132.104C320.063 135.846 319.89 139.795 320.648 143.617C321.405 147.44 323.072 151.024 325.506 154.067L333.257 163.743C335.377 166.363 336.533 169.631 336.533 173.002C336.533 176.372 335.377 179.64 333.257 182.26L325.501 191.936Z" fill="#FF0657"/>
<path d="M340.635 188.171C344.108 183.878 346.002 178.523 346.002 173.002C346.002 167.48 344.108 162.125 340.635 157.832L332.884 148.157C331.398 146.3 330.381 144.113 329.919 141.78C329.457 139.448 329.562 137.038 330.228 134.755L333.687 122.888C335.206 117.582 334.882 111.917 332.769 106.818C330.656 101.72 326.877 97.4871 322.05 94.8113L311.22 88.8657C309.134 87.7233 307.354 86.0954 306.03 84.1198C304.706 82.1441 303.877 79.8787 303.613 77.515L302.262 65.2048C301.683 59.7107 299.236 54.5817 295.33 50.6753C291.424 46.7689 286.295 44.3221 280.801 43.7439L268.49 42.3926C266.127 42.1297 263.861 41.3013 261.885 39.9775C259.91 38.6538 258.282 36.8736 257.14 34.7876L251.194 23.9558C248.559 19.0887 244.331 15.2759 239.218 13.157C234.106 11.0381 228.42 10.7421 223.115 12.3186L211.25 15.7752C208.966 16.4389 206.556 16.5439 204.222 16.081C201.889 15.6182 199.701 14.6013 197.843 13.1158L188.168 5.36492C183.874 1.89366 178.52 0 172.998 0C167.477 0 162.123 1.89366 157.829 5.36492L148.154 13.1158C146.295 14.5981 144.108 15.613 141.776 16.0752C139.444 16.5375 137.035 16.4337 134.752 15.7725L122.885 12.3132C117.579 10.7931 111.914 11.1161 106.815 13.2295C101.716 15.343 97.4833 19.1221 94.8082 23.9504L88.8626 34.7795C87.7202 36.8656 86.0923 38.6459 84.1167 39.9701C82.141 41.2943 79.8756 42.1233 77.5119 42.3872L65.2018 43.7385C59.7076 44.3167 54.5786 46.7635 50.6722 50.6699C46.7658 54.5763 44.319 59.7053 43.7408 65.1994L42.3895 77.5096C42.1266 79.8732 41.2982 82.1387 39.9744 84.1145C38.6507 86.0903 36.8705 87.7181 34.7845 88.8603L23.9527 94.8059C19.0867 97.4417 15.2748 101.67 13.1561 106.783C11.0373 111.895 10.7405 117.58 12.3155 122.885L15.7775 134.747C16.4413 137.031 16.5462 139.442 16.0834 141.775C15.6205 144.108 14.6036 146.296 13.1182 148.154L5.36724 157.829C1.89456 162.122 0 167.477 0 172.999C0 178.521 1.89456 183.875 5.36724 188.168L13.1182 197.843C14.6039 199.7 15.6209 201.887 16.0832 204.22C16.5456 206.553 16.4398 208.962 15.7748 211.245L12.3155 223.112C10.7952 228.418 11.1176 234.083 13.23 239.182C15.3424 244.282 19.1202 248.515 23.9473 251.192L34.7764 257.137C36.8625 258.28 38.6428 259.908 39.967 261.883C41.2912 263.859 42.1202 266.124 42.3841 268.488L43.7354 280.798C44.3136 286.292 46.7604 291.421 50.6668 295.328C54.5732 299.234 59.7022 301.681 65.1963 302.259L77.5065 303.611C79.8701 303.873 82.1357 304.702 84.1114 306.026C86.0872 307.349 87.715 309.13 88.8572 311.215L94.8028 322.047C97.4375 326.914 101.666 330.727 106.779 332.846C111.891 334.965 117.577 335.261 122.882 333.685L134.744 330.223C137.028 329.561 139.438 329.457 141.771 329.92C144.104 330.382 146.292 331.398 148.151 332.882L157.826 340.633C162.119 344.105 167.474 346 172.996 346C178.518 346 183.872 344.105 188.165 340.633L197.84 332.882C199.697 331.397 201.885 330.38 204.217 329.918C206.55 329.455 208.959 329.561 211.242 330.225L223.109 333.685C228.414 335.259 234.099 334.962 239.211 332.844C244.323 330.725 248.551 326.913 251.186 322.047L257.132 311.218C258.274 309.132 259.902 307.352 261.878 306.028C263.853 304.703 266.119 303.874 268.482 303.611L280.792 302.259C286.287 301.681 291.416 299.234 295.322 295.328C299.228 291.421 301.675 286.292 302.253 280.798L303.605 268.488C303.868 266.124 304.696 263.859 306.02 261.883C307.344 259.907 309.124 258.28 311.21 257.137L322.042 251.192C326.907 248.556 330.719 244.327 332.838 239.215C334.957 234.103 335.254 228.417 333.679 223.112L330.217 211.251C329.553 208.966 329.448 206.556 329.911 204.223C330.374 201.889 331.391 199.701 332.876 197.843L340.635 188.171ZM325.501 191.936C323.067 194.979 321.4 198.564 320.642 202.387C319.884 206.21 320.056 210.16 321.144 213.902L324.609 225.763C325.569 229 325.388 232.469 324.095 235.588C322.802 238.707 320.476 241.287 317.507 242.895L306.672 248.841C303.252 250.715 300.334 253.387 298.165 256.628C295.996 259.87 294.641 263.587 294.213 267.464L292.862 279.774C292.507 283.126 291.013 286.255 288.63 288.638C286.246 291.022 283.117 292.516 279.765 292.871L267.453 294.222C263.576 294.651 259.86 296.007 256.619 298.176C253.378 300.345 250.707 303.263 248.832 306.683L242.886 317.515C241.277 320.482 238.698 322.807 235.58 324.1C232.462 325.393 228.994 325.576 225.758 324.617L213.893 321.155C210.152 320.065 206.203 319.892 202.38 320.649C198.557 321.407 194.973 323.074 191.93 325.509L182.255 333.26C179.635 335.381 176.366 336.537 172.996 336.537C169.625 336.537 166.357 335.381 163.737 333.26L154.062 325.509C151.018 323.075 147.433 321.408 143.61 320.65C139.787 319.891 135.838 320.064 132.095 321.153L120.237 324.615C116.999 325.572 113.532 325.389 110.414 324.096C107.295 322.803 104.715 320.479 103.105 317.512L97.1594 306.678C95.2848 303.258 92.6135 300.339 89.3716 298.171C86.1298 296.002 82.413 294.646 78.5361 294.219L66.226 292.868C62.874 292.513 59.7451 291.019 57.3616 288.636C54.9781 286.252 53.4843 283.123 53.1294 279.771L51.7782 267.458C51.3493 263.582 49.9929 259.866 47.8238 256.625C45.6546 253.384 42.7366 250.713 39.3167 248.838L28.4849 242.892C25.5397 241.26 23.2345 238.678 21.9452 235.567C20.6559 232.456 20.4585 229.001 21.3853 225.763L24.8472 213.899C25.9366 210.158 26.1098 206.209 25.352 202.386C24.5942 198.563 22.9278 194.979 20.4934 191.936L12.7371 182.26C10.6177 179.64 9.46146 176.372 9.46146 173.002C9.46146 169.631 10.6177 166.363 12.7371 163.743L20.488 154.067C22.9223 151.024 24.5888 147.439 25.347 143.616C26.1052 139.793 25.9329 135.844 24.8445 132.101L21.3853 120.24C20.4249 117.003 20.6064 113.534 21.8995 110.415C23.1926 107.296 25.5186 104.716 28.4876 103.108L39.3221 97.1625C42.7425 95.2879 45.6606 92.6166 47.8294 89.3747C49.9981 86.1329 51.3536 82.4161 51.7809 78.5392L53.1322 66.2291C53.4895 62.8757 54.9868 59.7464 57.374 57.3642C59.7611 54.982 62.8935 53.4911 66.2476 53.1406L78.5605 51.7894C82.4369 51.3605 86.1529 50.0041 89.3941 47.835C92.6353 45.6658 95.3063 42.7478 97.181 39.3279L103.127 28.4961C104.758 25.5548 107.337 23.2518 110.443 21.9614C113.55 20.671 117.001 20.469 120.237 21.3884L132.101 24.8503C135.842 25.9402 139.791 26.1136 143.614 25.3558C147.437 24.598 151.021 22.9313 154.064 20.4965L163.74 12.7402C166.36 10.6203 169.628 9.46377 172.998 9.46377C176.369 9.46377 179.637 10.6203 182.257 12.7402L191.933 20.4911C194.977 22.924 198.562 24.5896 202.384 25.3478C206.207 26.1059 210.156 25.9344 213.899 24.8476L225.76 21.3884C228.997 20.4316 232.465 20.6149 235.583 21.9076C238.701 23.2003 241.281 25.5242 242.892 28.4907L248.837 39.3252C250.712 42.7456 253.383 45.6637 256.625 47.8325C259.867 50.0012 263.584 51.3566 267.461 51.784L279.771 53.1352C283.123 53.4901 286.252 54.9839 288.635 57.3674C291.019 59.7509 292.513 62.8798 292.867 66.2318L294.219 78.5446C294.648 82.421 296.004 86.1371 298.173 89.3783C300.342 92.6195 303.26 95.2905 306.68 97.1652L317.512 103.111C320.457 104.743 322.763 107.325 324.053 110.436C325.342 113.546 325.54 117.002 324.614 120.24L321.152 132.104C320.063 135.846 319.89 139.795 320.648 143.617C321.405 147.44 323.072 151.024 325.506 154.067L333.257 163.743C335.377 166.363 336.533 169.631 336.533 173.002C336.533 176.372 335.377 179.64 333.257 182.26L325.501 191.936Z" fill="url(#paint1_linear)"/>
<path d="M204.486 102.263V114.989L172.973 187.104H151.642L182.063 118.262H153.945V132.079H136.492V102.263H204.486Z" fill="white"/>
<path d="M118.676 210.839H132.583C135.977 210.839 138.992 211.505 141.628 212.839C144.264 214.141 146.309 216.005 147.764 218.429C149.218 220.823 149.945 223.595 149.945 226.746C149.945 229.898 149.218 232.685 147.764 235.109C146.309 237.503 144.264 239.366 141.628 240.7C138.992 242.002 135.977 242.654 132.583 242.654H118.676V210.839ZM132.311 237.654C134.644 237.654 136.689 237.215 138.446 236.336C140.234 235.427 141.598 234.155 142.537 232.518C143.507 230.852 143.991 228.928 143.991 226.746C143.991 224.565 143.507 222.656 142.537 221.02C141.598 219.353 140.234 218.08 138.446 217.202C136.689 216.293 134.644 215.838 132.311 215.838H124.584V237.654H132.311Z" fill="white"/>
<path d="M156.225 210.839H162.134V242.654H156.225V210.839Z" fill="white"/>
<path d="M191.374 235.291H175.466L172.33 242.654H166.24L180.556 210.839H186.374L200.736 242.654H194.555L191.374 235.291ZM189.419 230.655L183.42 216.747L177.466 230.655H189.419Z" fill="white"/>
<path d="M214.645 243.108C212.191 243.108 209.812 242.76 207.509 242.063C205.237 241.366 203.434 240.442 202.101 239.291L204.146 234.7C205.449 235.73 207.04 236.579 208.918 237.245C210.827 237.882 212.736 238.2 214.645 238.2C217.009 238.2 218.766 237.821 219.917 237.063C221.099 236.306 221.69 235.306 221.69 234.064C221.69 233.155 221.357 232.412 220.69 231.837C220.054 231.231 219.236 230.761 218.236 230.428C217.236 230.094 215.872 229.716 214.145 229.292C211.721 228.716 209.752 228.14 208.237 227.564C206.752 226.989 205.464 226.095 204.373 224.883C203.313 223.641 202.783 221.974 202.783 219.883C202.783 218.126 203.252 216.535 204.192 215.111C205.161 213.657 206.6 212.505 208.509 211.657C210.449 210.808 212.812 210.384 215.6 210.384C217.539 210.384 219.448 210.627 221.326 211.111C223.205 211.596 224.826 212.293 226.189 213.202L224.326 217.793C222.932 216.974 221.478 216.353 219.963 215.929C218.448 215.505 216.978 215.293 215.554 215.293C213.221 215.293 211.479 215.687 210.327 216.475C209.206 217.262 208.646 218.308 208.646 219.611C208.646 220.52 208.964 221.262 209.6 221.838C210.267 222.413 211.1 222.868 212.1 223.201C213.1 223.534 214.463 223.913 216.19 224.337C218.554 224.883 220.493 225.459 222.008 226.065C223.523 226.64 224.811 227.534 225.871 228.746C226.962 229.958 227.508 231.594 227.508 233.655C227.508 235.412 227.023 237.003 226.053 238.427C225.114 239.851 223.675 240.987 221.735 241.836C219.796 242.684 217.433 243.108 214.645 243.108Z" fill="white"/>
<defs>
<linearGradient id="paint0_linear" x1="-2.57792e-06" y1="173" x2="346.002" y2="173" gradientUnits="userSpaceOnUse">
<stop stop-color="#40CBF6"/>
<stop offset="1" stop-color="#82C041"/>
</linearGradient>
<linearGradient id="paint1_linear" x1="-2.57792e-06" y1="173" x2="346.002" y2="173" gradientUnits="userSpaceOnUse">
<stop stop-color="#40CBF6"/>
<stop offset="1" stop-color="#82C041"/>
</linearGradient>
</defs>
</svg>
